<?xml version="1.0" encoding="utf-8"?>
<!-- Generator: Adobe Illustrator 16.0.0, SVG Export Plug-In . SVG Version: 6.00 Build 0)  -->
<!DOCTYPE svg PUBLIC "-//W3C//DTD SVG 1.1//EN" "http://www.w3.org/Graphics/SVG/1.1/DTD/svg11.dtd">
<svg version="1.1" id="Layer_1" xmlns="http://www.w3.org/2000/svg" xmlns:xlink="http://www.w3.org/1999/xlink" x="0px" y="0px"
	 width="255px" height="61px" viewBox="0 0 255 61" enable-background="new 0 0 255 61" xml:space="preserve">
<g>
	<g>
		<g>
			<g>
				<path fill="#FFFFFF" stroke="#FFFFFF" stroke-width="4" stroke-miterlimit="10" d="M35.174,12.566
					c-0.119-0.029-0.24-0.047-0.354-0.047c-1.433,0-1.919,2.281-2.312,4.115c-0.038,0.18-0.076,0.355-0.113,0.523
					c-0.34,1.527-1.212,4.184-1.519,5.104c0.011-0.359,0.013-0.732-0.004-1.123l-0.003-0.068l-0.031-0.061
					c-0.17-0.318-0.76-1.377-1.227-1.584c-0.212-0.096-0.582-0.154-0.965-0.154c-0.336,0-0.865,0.047-1.256,0.287
					c-0.314-0.453-0.917-1.25-1.369-1.406c-0.199-0.068-0.533-0.111-0.893-0.111c-0.334,0-0.965,0.039-1.436,0.281
					c0.07-1.73,0.176-4.506,0.174-5.457c-0.004-1.371,0.375-5.605,0.381-5.648l0.01-0.127l-0.084-0.098
					c-0.023-0.027-0.607-0.684-1.57-0.684h-0.021c-0.889,0.01-2.473,0.803-2.777,3.721c-0.246,2.369-1.537,15.588-1.797,18.246
					c-0.854-0.484-3.008-1.678-6-3.139c-0.959-0.469-1.865-0.707-2.688-0.707c-2.197,0-3.078,1.645-3.113,1.713L6.08,26.385
					l0.227,0.148c0.083,0.055,8.191,5.404,9.926,7.424c1.601,1.861,4.692,3.684,5.464,4.125l-1.595,17.285h13.615l-0.564-17.674
					c0.16-0.271,0.588-1.137,0.725-2.836c0.152-1.926,0.602-9.65,0.631-10.156c0.145-0.625,2.07-9.006,2.17-10
					c0.006-0.066,0.014-0.131,0.02-0.191C36.805,13.52,36.785,12.982,35.174,12.566z"/>
			</g>
			<g>
				<path fill="#FFFFFF" stroke="#FFFFFF" stroke-width="4" stroke-miterlimit="10" d="M33.717,56.531H20.102
					c-0.326,0-0.639-0.137-0.861-0.379c-0.221-0.244-0.328-0.568-0.299-0.893l1.527-16.549c-1.309-0.789-3.713-2.357-5.119-3.994
					c-1.365-1.588-7.604-5.844-9.684-7.209l-0.224-0.148c-0.501-0.328-0.672-0.982-0.396-1.512l0.127-0.244
					c0.443-0.865,1.82-2.338,4.146-2.338c1.002,0,2.076,0.275,3.197,0.824c1.857,0.906,3.398,1.713,4.502,2.311
					c0.441-4.494,1.416-14.465,1.627-16.492c0.389-3.732,2.65-4.75,3.922-4.766c1.5,0,2.389,0.975,2.484,1.084l0.088,0.102
					c0.204,0.238,0.305,0.545,0.279,0.857l-0.012,0.127c-0.061,0.648-0.379,4.357-0.376,5.549c0.001,0.6-0.038,1.949-0.116,4.021
					c0.074-0.004,0.146-0.006,0.213-0.006c0.289,0,0.836,0.023,1.273,0.174c0.299,0.104,0.75,0.336,1.41,1.133
					c0.305-0.059,0.594-0.076,0.834-0.076c0.324,0,0.941,0.033,1.439,0.254c0.108,0.049,0.336,0.148,0.654,0.469
					c0.209-0.703,0.398-1.391,0.516-1.924l0.102-0.459c0.465-2.182,1.088-5.092,3.462-5.092c0.218,0,0.437,0.029,0.649,0.086
					c2.205,0.566,2.551,1.688,2.387,3.193l-0.018,0.172c-0.105,1.055-1.877,8.773-2.172,10.061l-0.014,0.225
					c-0.391,6.695-0.55,9.057-0.613,9.859c-0.121,1.498-0.451,2.461-0.712,3.01l0.555,17.367c0.011,0.316-0.108,0.623-0.328,0.85
					C34.336,56.402,34.032,56.531,33.717,56.531z M21.381,54.201h11.135l-0.527-16.473c-0.008-0.221,0.049-0.439,0.162-0.631
					c0.074-0.123,0.444-0.814,0.564-2.334c0.062-0.789,0.221-3.133,0.611-9.809l0.02-0.324c0.004-0.062,0.013-0.129,0.027-0.191
					c0.793-3.439,2.076-9.156,2.146-9.854l0.021-0.193c0.01-0.092,0.033-0.322,0.031-0.451c-0.079-0.049-0.271-0.139-0.688-0.246
					l-0.063-0.01c-0.224,0-0.608,0.555-1.173,3.191l-0.115,0.535c-0.344,1.549-1.199,4.164-1.551,5.219
					c-0.184,0.549-0.734,0.879-1.309,0.777c-0.57-0.102-0.979-0.605-0.961-1.182c0.008-0.273,0.011-0.553,0.003-0.844
					c-0.261-0.465-0.499-0.785-0.618-0.902c-0.08-0.018-0.242-0.043-0.449-0.043c-0.317,0-0.552,0.057-0.645,0.113
					c-0.526,0.322-1.214,0.182-1.567-0.326c-0.431-0.621-0.72-0.9-0.828-0.98c-0.071-0.014-0.237-0.037-0.478-0.037
					c-0.371,0-0.726,0.059-0.904,0.152c-0.369,0.188-0.811,0.166-1.16-0.057c-0.348-0.223-0.553-0.613-0.535-1.029
					c0.145-3.598,0.175-4.926,0.174-5.404c-0.004-1.145,0.242-4.117,0.344-5.285c-0.116-0.059-0.268-0.109-0.443-0.109
					c-0.477,0.006-1.42,0.57-1.641,2.674c-0.227,2.189-1.352,13.691-1.721,17.475l-0.074,0.766c-0.039,0.393-0.274,0.74-0.623,0.92
					c-0.352,0.184-0.77,0.174-1.111-0.02c-0.787-0.445-2.938-1.641-5.938-3.105c-0.799-0.391-1.533-0.588-2.176-0.588
					c-0.725,0-1.229,0.244-1.562,0.504c2.137,1.434,7.838,5.328,9.358,7.098c1.155,1.346,3.421,2.881,5.158,3.871
					c0.396,0.227,0.624,0.664,0.583,1.119L21.381,54.201z"/>
				<path fill="#FFFFFF" stroke="#FFFFFF" stroke-width="4" stroke-miterlimit="10" d="M33.717,57.16H20.102
					c-0.502,0-0.985-0.215-1.324-0.584c-0.339-0.373-0.506-0.873-0.461-1.373l1.49-16.16c-1.385-0.857-3.582-2.344-4.934-3.916
					c-1.221-1.42-6.961-5.393-9.551-7.094L5.1,27.885c-0.775-0.508-1.037-1.508-0.608-2.33l0.126-0.242
					c0.508-0.99,2.074-2.676,4.703-2.676c1.098,0,2.266,0.299,3.473,0.889c1.264,0.617,2.502,1.246,3.693,1.877
					c0.479-4.891,1.338-13.658,1.536-15.559c0.433-4.172,3.058-5.312,4.54-5.328c1.743,0,2.775,1.082,2.963,1.299l0.092,0.105
					c0.311,0.363,0.467,0.842,0.428,1.316l-0.01,0.127c-0.061,0.641-0.379,4.338-0.375,5.496c0.002,0.539-0.03,1.684-0.093,3.404
					c0.329,0.023,0.704,0.076,1.04,0.193c0.316,0.109,0.801,0.338,1.453,1.055c0.189-0.021,0.387-0.033,0.586-0.033
					c0.373,0,1.092,0.041,1.693,0.309c0.012,0.006,0.025,0.01,0.041,0.018c0.112-0.408,0.201-0.754,0.262-1.033l0.1-0.457
					c0.476-2.225,1.195-5.588,4.077-5.588c0.271,0,0.544,0.035,0.812,0.107c2.818,0.727,3.004,2.449,2.85,3.869l-0.018,0.172
					c-0.104,1.031-1.674,7.908-2.174,10.082l-0.01,0.172c-0.391,6.682-0.551,9.055-0.615,9.871c-0.119,1.48-0.436,2.48-0.705,3.088
					l0.549,17.221c0.018,0.482-0.167,0.957-0.502,1.305C34.668,56.963,34.199,57.16,33.717,57.16z M9.32,23.893
					c-2.023,0-3.207,1.256-3.588,1.998l-0.129,0.248c-0.127,0.244-0.049,0.543,0.182,0.695L6.01,26.98
					c0.082,0.055,8.133,5.369,9.816,7.328c1.352,1.572,3.691,3.096,4.967,3.863l0.337,0.203l-1.562,16.941
					c-0.013,0.15,0.036,0.301,0.138,0.412s0.246,0.176,0.396,0.176h13.615c0.145,0,0.285-0.061,0.387-0.164
					c0.1-0.104,0.154-0.246,0.15-0.391l-0.559-17.521l0.064-0.137c0.234-0.494,0.539-1.379,0.652-2.791
					c0.064-0.809,0.223-3.176,0.614-9.846l0.027-0.328c0.948-4.121,2.081-9.209,2.159-9.982l0.02-0.176
					c0.143-1.307-0.117-2.055-1.92-2.52c-0.166-0.045-0.33-0.066-0.493-0.066c-1.728,0-2.312,2.082-2.849,4.596l-0.102,0.463
					c-0.107,0.488-0.283,1.148-0.527,1.967l-0.301,1.02l-0.746-0.754c-0.234-0.234-0.385-0.303-0.465-0.338
					c-0.406-0.18-0.962-0.201-1.184-0.201c-0.25,0-0.49,0.021-0.715,0.066l-0.367,0.07l-0.236-0.287
					c-0.637-0.77-1.008-0.896-1.131-0.939c-0.293-0.1-0.729-0.156-1.256-0.137l-0.679,0.029l0.025-0.68
					c0.079-2.064,0.118-3.408,0.116-3.994c-0.004-1.223,0.316-4.93,0.379-5.609l0.009-0.121c0.013-0.145-0.032-0.283-0.128-0.395
					l-0.088-0.102c-0.029-0.031-0.77-0.865-2.008-0.865c-1.059,0.012-2.955,0.91-3.297,4.203
					c-0.209,2.006-1.158,11.701-1.613,16.361L17.554,27.4l-0.832-0.449c-1.429-0.771-2.937-1.545-4.479-2.299
					C11.209,24.148,10.225,23.893,9.32,23.893z M33.162,54.83H20.691l1.54-16.699c0.019-0.211-0.087-0.412-0.269-0.516
					c-1.783-1.018-4.117-2.605-5.322-4.008c-1.496-1.74-7.443-5.787-9.232-6.986l-0.721-0.482l0.686-0.533
					c1.072-0.836,2.633-0.85,4.398,0.014c3.002,1.467,5.176,2.672,5.971,3.123c0.157,0.088,0.354,0.092,0.512,0.01
					c0.162-0.084,0.27-0.244,0.287-0.426l0.113-1.145c0.4-4.096,1.465-14.975,1.684-17.098c0.266-2.541,1.545-3.23,2.258-3.238
					c0.256,0,0.502,0.061,0.733,0.178l0.38,0.191l-0.037,0.422c-0.105,1.203-0.346,4.119-0.342,5.23
					c0.002,0.488-0.028,1.828-0.174,5.434c-0.008,0.189,0.086,0.371,0.247,0.473c0.157,0.1,0.368,0.111,0.534,0.025
					c0.387-0.197,0.963-0.219,1.191-0.219c0.32,0,0.527,0.035,0.604,0.051l0.137,0.027l0.113,0.082
					c0.116,0.088,0.445,0.373,0.969,1.125c0.156,0.225,0.486,0.295,0.723,0.15c0.289-0.18,0.734-0.205,0.973-0.205
					c0.293,0,0.505,0.039,0.582,0.055l0.179,0.039l0.13,0.129c0.193,0.189,0.471,0.588,0.725,1.041l0.076,0.137l0.004,0.154
					c0.008,0.305,0.006,0.598-0.004,0.881c-0.008,0.264,0.182,0.498,0.442,0.543c0.261,0.047,0.521-0.105,0.604-0.357
					c0.35-1.047,1.197-3.648,1.533-5.156l0.115-0.531c0.666-3.117,1.123-3.686,1.786-3.686l0.159,0.016
					c0.436,0.109,0.725,0.215,0.912,0.326l0.3,0.178l0.009,0.348c0.002,0.145-0.021,0.402-0.035,0.521l-0.021,0.203
					c-0.081,0.816-1.585,7.445-2.158,9.93c-0.006,0.031-0.01,0.059-0.012,0.086l-0.02,0.326c-0.39,6.672-0.549,9.023-0.611,9.822
					c-0.129,1.615-0.53,2.4-0.65,2.604c-0.053,0.088-0.078,0.189-0.074,0.293L33.162,54.83z M22.068,53.574h9.797L31.36,37.75
					c-0.01-0.342,0.077-0.678,0.25-0.971c0.015-0.025,0.364-0.631,0.479-2.064c0.062-0.793,0.221-3.135,0.609-9.797l0.02-0.322
					c0.006-0.102,0.02-0.199,0.043-0.299c0.922-4.008,1.906-8.436,2.1-9.561c-0.145,0.398-0.348,1.09-0.6,2.271l-0.117,0.537
					c-0.334,1.512-1.125,3.959-1.568,5.285c-0.279,0.83-1.123,1.352-2.014,1.197c-0.871-0.156-1.508-0.938-1.48-1.82
					c0.008-0.213,0.011-0.428,0.008-0.65c-0.127-0.215-0.238-0.377-0.318-0.486c-0.039-0.004-0.08-0.004-0.125-0.004
					c-0.199,0-0.326,0.027-0.352,0.039c-0.248,0.154-0.572,0.246-0.902,0.246c-0.588,0-1.139-0.287-1.473-0.77
					c-0.281-0.402-0.479-0.627-0.59-0.74c-0.053-0.002-0.119-0.008-0.201-0.008c-0.334,0-0.564,0.057-0.619,0.084
					c-0.551,0.283-1.252,0.252-1.781-0.084c-0.536-0.344-0.854-0.951-0.828-1.584c0.146-3.584,0.176-4.904,0.174-5.379
					c-0.002-0.979,0.17-3.229,0.287-4.645c-0.264,0.219-0.646,0.768-0.773,1.988c-0.221,2.117-1.283,12.996-1.684,17.088
					l-0.112,1.146c-0.06,0.607-0.419,1.137-0.959,1.418c-0.526,0.273-1.192,0.262-1.71-0.033c-0.785-0.443-2.931-1.637-5.902-3.088
					c-0.818-0.398-1.542-0.574-2.141-0.512c2.648,1.803,7.145,4.963,8.513,6.555c1.101,1.281,3.302,2.77,4.993,3.734
					c0.607,0.348,0.961,1.023,0.896,1.723L22.068,53.574z"/>
			</g>
		</g>
		<g>
			<g>
				<path fill="#FFFFFF" stroke="#FFFFFF" stroke-width="4" stroke-miterlimit="10" d="M34.209,24.658c0,0,2.068-8.982,2.17-9.986
					c0.1-1.004,0.258-1.416-1.279-1.812s-1.99,2.473-2.412,4.365c-0.42,1.895-1.637,5.461-1.637,5.461l-7.721-2.928
					c0,0,0.238-5.49,0.236-6.891c-0.004-1.402,0.381-5.676,0.381-5.676s-0.514-0.59-1.361-0.58c-0.85,0.008-2.204,0.795-2.48,3.449
					c-0.275,2.652-1.844,18.707-1.844,18.707s-2.445-1.434-6.387-3.361c-3.943-1.926-5.402,0.875-5.402,0.875s8.205,5.404,9.99,7.48
					c1.781,2.074,5.551,4.152,5.551,4.152l-1.58,17.152h12.971L32.85,37.609c0,0,0.567-0.773,0.727-2.775
					C33.736,32.834,34.209,24.658,34.209,24.658z"/>
			</g>
		</g>
		<g>
			<g>
				<path fill="#FFFFFF" stroke="#FFFFFF" stroke-width="4" stroke-miterlimit="10" d="M33.717,55.367H20.102l1.595-17.285
					c-0.771-0.441-3.863-2.264-5.464-4.125c-1.734-2.02-9.843-7.369-9.926-7.424L6.08,26.385l0.127-0.242
					c0.035-0.068,0.916-1.713,3.113-1.713c0.822,0,1.729,0.238,2.688,0.707c2.992,1.461,5.146,2.654,6,3.139
					c0.26-2.658,1.551-15.877,1.797-18.246c0.305-2.918,1.889-3.711,2.777-3.721h0.021c0.963,0,1.547,0.656,1.57,0.684l0.084,0.098
					l-0.01,0.127c-0.006,0.043-0.385,4.277-0.381,5.648c0.002,1.25-0.182,5.643-0.225,6.686l7.223,2.742
					c0.297-0.893,1.186-3.592,1.529-5.135c0.037-0.168,0.075-0.344,0.113-0.523c0.393-1.834,0.879-4.115,2.312-4.115
					c0.114,0,0.235,0.018,0.354,0.047c1.611,0.416,1.631,0.953,1.523,1.943c-0.006,0.061-0.014,0.125-0.02,0.191
					c-0.1,0.994-2.025,9.375-2.17,10c-0.029,0.506-0.479,8.23-0.631,10.156c-0.137,1.699-0.564,2.564-0.725,2.836L33.717,55.367z
					 M20.763,54.766h12.332l-0.55-17.25l0.062-0.086c0.004-0.004,0.521-0.752,0.669-2.619c0.158-1.977,0.627-10.088,0.633-10.17
					l0.008-0.051c0.02-0.088,2.066-8.975,2.162-9.949c0.008-0.066,0.014-0.133,0.02-0.195c0.09-0.82,0.107-0.99-1.074-1.295
					c-0.07-0.018-0.139-0.027-0.204-0.027c-0.946,0-1.395,2.1-1.722,3.637c-0.038,0.182-0.078,0.361-0.115,0.531
					c-0.419,1.889-1.596,5.346-1.646,5.494l-0.102,0.293l-8.213-3.117l0.008-0.217c0.004-0.055,0.238-5.498,0.234-6.877
					c-0.004-1.27,0.303-4.791,0.371-5.561c-0.159-0.135-0.527-0.395-1.031-0.395c-0.705,0.006-1.938,0.684-2.199,3.18
					c-0.273,2.621-1.826,18.545-1.842,18.705l-0.045,0.469l-0.408-0.238c-0.023-0.014-2.48-1.451-6.367-3.35
					c-0.877-0.43-1.691-0.645-2.422-0.645c-1.375,0-2.135,0.77-2.431,1.164c1.417,0.939,8.167,5.467,9.8,7.369
					c1.727,2.01,5.432,4.064,5.471,4.084l0.172,0.094L20.763,54.766z"/>
			</g>
		</g>
		<g>
			<g>
				<path fill="#FFFFFF" stroke="#FFFFFF" stroke-width="4" stroke-miterlimit="10" d="M30.572,21.15c0,0-0.674-1.268-1.084-1.449
					c-0.41-0.184-1.84-0.25-2.203,0.371c0,0-0.791,6.975-0.883,8.305c-0.088,1.33,0.259,1.607,0.867,1.732
					c0.612,0.125,1.509,0.381,1.889-1.322C29.561,27,30.715,24.756,30.572,21.15z"/>
			</g>
		</g>
		<g>
			<g>
				<path fill="#FFFFFF" stroke="#FFFFFF" stroke-width="4" stroke-miterlimit="10" d="M27.91,30.502L27.91,30.502
					c-0.23,0-0.443-0.045-0.633-0.084l-0.066-0.014c-0.896-0.184-1.195-0.738-1.108-2.047c0.089-1.322,0.85-8.035,0.882-8.318
					l0.009-0.062l0.03-0.057c0.332-0.562,1.16-0.648,1.623-0.648c0.383,0,0.753,0.059,0.965,0.154
					c0.467,0.207,1.057,1.266,1.227,1.584l0.031,0.061l0.003,0.068c0.108,2.713-0.503,4.66-0.992,6.225
					c-0.167,0.531-0.325,1.033-0.427,1.49C29.205,29.963,28.7,30.502,27.91,30.502z M27.575,20.182
					c-0.087,0.754-0.788,6.982-0.871,8.215c-0.085,1.271,0.245,1.338,0.628,1.416l0.07,0.016c0.166,0.035,0.341,0.072,0.508,0.072
					h0.002c0.207,0,0.691-0.004,0.953-1.18c0.107-0.48,0.27-0.994,0.439-1.539c0.473-1.506,1.059-3.375,0.969-5.951
					c-0.301-0.553-0.727-1.174-0.908-1.254c-0.111-0.051-0.395-0.102-0.719-0.102C28.141,19.875,27.73,19.994,27.575,20.182z"/>
			</g>
		</g>
		<g>
			<g>
				<path fill="#FFFFFF" stroke="#FFFFFF" stroke-width="4" stroke-miterlimit="10" d="M27.289,19.947c0,0-0.88-1.344-1.365-1.51
					c-0.484-0.168-2.271-0.184-2.502,0.586c-0.836,2.797-0.324,7.75-0.318,9.223c0.01,1.473,0.438,2.322,1.15,2.41
					c0.711,0.09,1.771,0.707,2.016-0.971C26.547,27.775,27.289,19.947,27.289,19.947z"/>
			</g>
		</g>
		<g>
			<g>
				<path fill="#FFFFFF" stroke="#FFFFFF" stroke-width="4" stroke-miterlimit="10" d="M25.307,31.143L25.307,31.143
					c-0.248,0-0.5-0.061-0.725-0.113c-0.133-0.029-0.258-0.061-0.367-0.072c-0.521-0.066-1.398-0.506-1.412-2.711
					c-0.001-0.297-0.023-0.738-0.053-1.297c-0.108-2.148-0.293-5.744,0.385-8.012c0.24-0.807,1.475-0.896,1.994-0.896
					c0.359,0,0.693,0.043,0.893,0.111c0.541,0.188,1.302,1.295,1.52,1.629l0.059,0.09l-0.01,0.105
					c-0.008,0.078-0.747,7.857-1.021,9.752C26.432,30.666,26.008,31.143,25.307,31.143z M25.129,18.645
					c-0.752,0-1.334,0.191-1.416,0.467c-0.648,2.168-0.469,5.697-0.361,7.807c0.029,0.566,0.052,1.014,0.055,1.324
					c0.008,1.256,0.338,2.049,0.883,2.115c0.142,0.018,0.289,0.053,0.432,0.086c0.201,0.047,0.408,0.096,0.586,0.096h0.004
					c0.186,0,0.531-0.002,0.662-0.896c0.254-1.76,0.917-8.674,1.008-9.617c-0.393-0.582-0.928-1.225-1.154-1.305
					C25.715,18.684,25.457,18.645,25.129,18.645z"/>
			</g>
		</g>
		<g>
			<g>
				<path fill="#FFFFFF" stroke="#FFFFFF" stroke-width="4" stroke-miterlimit="10" d="M31.395,38.086l0.191,6.217
					c0,0-0.602-5.094-3.422-5.668C28.164,38.635,29.916,39.018,31.395,38.086z"/>
			</g>
		</g>
		<g>
			<g>
				<path fill="#FFFFFF" stroke="#FFFFFF" stroke-width="4" stroke-miterlimit="10" d="M29.86,27.408l2.668,1.012l-3.005-0.617
					l-0.703,2.051l3.09,3.061l-3.344-2.781l-1.43-0.027l-0.143,2.584l-0.336-2.668l-1.039,0.869c0,0-1.629,1.631-2.051,3.119
					c0,0,0.787-2.529,1.125-3.258l0.561,0.027l0.9-0.646l0.25-0.588l0.957,0.477l0.932-0.018l0.359-0.207l0.786-2.389H29.86z"/>
			</g>
		</g>
		<g>
			<g>
				<path fill="#FFFFFF" stroke="#FFFFFF" stroke-width="4" stroke-miterlimit="10" d="M30.768,20.92l0.484,0.512l-0.203,0.996
					c0,0-0.383-0.102-0.383-0.178C30.666,22.172,30.768,20.92,30.768,20.92z"/>
			</g>
		</g>
		<g>
			<g>
				<polygon fill="#FFFFFF" stroke="#FFFFFF" stroke-width="4" stroke-miterlimit="10" points="23.264,19.031 21.73,22.164 
					23.035,27.547 				"/>
			</g>
		</g>
		<g>
			<g>
				<path fill="#FFFFFF" stroke="#FFFFFF" stroke-width="4" stroke-miterlimit="10" d="M23.424,38.076l-1.615,15.762h1.139
					c0,0,0.688-8.016,1.016-9.93s0.387-3.818,2.344-4.934c0,0,1.693-0.748,1.664-3.918c0,0-0.549,3.43-2.701,3.314
					C23.873,38.295,23.424,38.076,23.424,38.076z"/>
			</g>
		</g>
		<g>
			<g>
				<path fill="#FFFFFF" stroke="#FFFFFF" stroke-width="4" stroke-miterlimit="10" d="M19.373,27.75l-0.244,1.807l2.617,1.594
					c0,0-1.193-0.75-1.684-1.701S19.373,27.75,19.373,27.75z"/>
			</g>
		</g>
		<g>
			<g>
				<path fill="#FFFFFF" stroke="#FFFFFF" stroke-width="4" stroke-miterlimit="10" d="M28.479,29.717c0,0,0.25-1.041,0.051-1.268
					c-0.197-0.227-0.828-0.359-0.828-0.359s1.443-0.322,1.195,1.09C28.711,30.246,28.479,29.717,28.479,29.717z"/>
			</g>
		</g>
		<g>
			<g>
				<path fill="#FFFFFF" stroke="#FFFFFF" stroke-width="4" stroke-miterlimit="10" d="M23.761,30.033c0,0-0.25-1.039-0.052-1.268
					c0.197-0.229,0.828-0.359,0.828-0.359s-1.441-0.324-1.195,1.09C23.527,30.564,23.761,30.033,23.761,30.033z"/>
			</g>
		</g>
	</g>
	<g>
		<g>
			<path fill="#FFFFFF" stroke="#FFFFFF" stroke-width="4" stroke-miterlimit="10" d="M250.672,41.414l-1.026-5.43
				c-0.218-1.158-0.906-2.105-1.829-2.689l-0.155-1.34l0.595-3.795c0.322-2.057-0.951-3.996-2.902-4.555
				c-0.822-0.592-1.836-0.855-2.852-0.74l-0.962,0.109l-8.765-1.373c-0.568-0.4-1.244-0.66-1.988-0.727l-6.082-0.537
				c-0.514-0.047-1.012,0.008-1.48,0.145c-0.684-1.246-1.994-2.102-3.518-2.123l-2.709-0.043c-0.4-0.105-0.816-0.156-1.24-0.135
				c-0.256,0.012-0.508,0.047-0.754,0.105l-2.006-0.029c-2.242-0.047-4.107,1.764-4.143,4.018l-0.027,1.719l-3.124,3.422
				l-5.437-3.891l-1.07-3.82c-0.607-2.17-2.865-3.434-5.031-2.828l-6.627,1.855c-0.883,0.246-1.648,0.783-2.186,1.514l-4.512-1.469
				c-1.027-0.336-2.15-0.248-3.114,0.242c-0.966,0.49-1.696,1.344-2.031,2.373l-0.845,2.596c-0.168,0.215-0.316,0.447-0.439,0.693
				c-0.309,0.617-0.453,1.295-0.432,1.973l-4.961,15.23c-0.508-0.227-1.068-0.354-1.66-0.354h-8.701l-0.945-3.572l10.064-2.934
				c1.039-0.303,1.915-1.008,2.436-1.957c0.521-0.949,0.643-2.066,0.34-3.105l-2.008-6.879c-0.631-2.164-2.897-3.402-5.062-2.775
				l-16.836,4.912c0.848-1.203,0.996-2.777,0.35-4.119c-0.696-1.441-2.159-2.322-3.771-2.307l-7.907,0.18
				c-1.181,0.025-2.294,0.564-3.048,1.475l-0.82,0.988c-0.654-1.385-2.062-2.342-3.694-2.342c0,0-0.001,0-0.005,0l-6.922,0.008
				c-0.785,0-1.547,0.229-2.197,0.646c-2.982-2.146-6.573-3.326-10.338-3.326c-0.842,0-1.688,0.061-2.525,0.182
				c-5.507,0.789-10.129,4.043-12.793,8.568c-3.055-2.371-6.863-3.734-10.883-3.734c-3.434,0-6.642,0.984-9.361,2.678
				c-0.445-1.137-1.029-2.229-1.771-3.238c-2.232-3.031-5.508-5.012-9.223-5.578l-3.791-0.576c-0.102-0.023-0.203-0.043-0.305-0.061
				l-4.883-0.742c-0.086-0.018-0.172-0.033-0.258-0.047l-5.526-0.848c-2.063-0.314-4.04,0.979-4.569,3.002l-0.35,1.344
				c-0.406,1.549,0.131,3.191,1.373,4.201l2.277,1.85l-3.476,22.758l-2.86,1.689c-1.375,0.812-2.15,2.355-1.98,3.945l0.146,1.381
				c0.221,2.078,1.972,3.652,4.06,3.652h0.012l5.594-0.018c0.137,0,0.271-0.008,0.406-0.023l4.293-0.021
				c2.01-0.012,3.713-1.484,4.014-3.471l0.765-5.049l3.552,6.459c0.717,1.307,2.088,2.117,3.576,2.117h0.016l6.568-0.025
				c0.135,0,0.27-0.008,0.401-0.021h2.329c1.014,0,1.947-0.377,2.666-0.998c1.961,0.75,4.086,1.164,6.307,1.164
				c6.541,0,12.239-3.484,15.32-8.736c3.051,2.363,6.85,3.721,10.867,3.721c0.84,0,1.689-0.061,2.525-0.18
				c0.787-0.113,1.557-0.275,2.307-0.486c0,0.135,0.007,0.27,0.021,0.404l0.149,1.5c0.207,2.08,1.953,3.67,4.047,3.676l6.051,0.023
				c0.006,0,0.01,0,0.016,0h0.013c0.116,0,0.232-0.004,0.347-0.014l4.042-0.006c1.083,0,2.122-0.43,2.886-1.197
				c0.765-0.768,1.193-1.807,1.191-2.889l-0.002-0.914l2.495,3.266c0.771,1.008,1.968,1.604,3.239,1.604l8.58,0.014
				c0,0,0.005,0,0.008,0c0.383,0,0.757-0.053,1.113-0.156c0.4,0.131,0.826,0.205,1.269,0.205h18.782c0.436,0,0.855-0.072,1.25-0.197
				c0.379,0.113,0.775,0.182,1.182,0.182h7.094c1.767,0,3.333-1.139,3.881-2.818l0.389-1.193l1.42,0.205l0.338,1.014
				c0.555,1.668,2.115,2.793,3.872,2.793h7.187c0.539,0,1.062-0.113,1.551-0.312c0.477,0.193,0.993,0.312,1.532,0.312h7.147
				c0.004,0,0.008,0,0.014,0c2.252,0,4.08-1.828,4.08-4.084c0-0.496-0.088-0.973-0.25-1.412l-1.35-4.812
				c0.061,0,0.119-0.002,0.176-0.006c0.571-0.025,1.123-0.17,1.625-0.418l-0.102,6.588c-0.016,1.092,0.406,2.146,1.174,2.926
				s1.814,1.219,2.908,1.219h6.711c0.463,0,0.907-0.082,1.324-0.225c0.42,0.145,0.867,0.225,1.322,0.225h6.132
				c2.114,0,3.878-1.615,4.065-3.723l0.357-4.033l15.031-2.842c1.064-0.201,2.004-0.814,2.615-1.711
				C250.644,43.578,250.873,42.479,250.672,41.414z"/>
		</g>
		<g>
			<g>
				<path fill="#FFFFFF" stroke="#FFFFFF" stroke-width="4" stroke-miterlimit="10" d="M62.99,38.631
					c3.363-1.223,5.957-4.215,6.518-7.9c0.83-5.455-2.932-10.564-8.385-11.395l-4.098-0.623l0.002-0.012l-5.146-0.783l0.002-0.008
					l-5.527-0.85l-0.35,1.346l4.09,3.324l-4.121,26.977l-4.526,2.678l0.147,1.383l5.592-0.018l0.006-0.02l4.686-0.025l2.158-14.26
					l2.09,0.344l7.68,13.973l6.569-0.025l-0.012-0.021l2.755-0.002l0.143-1.383l-4.752-2.158L62.99,38.631z M56.098,24.844
					l4.092,0.623c2.074,0.316,3.504,2.26,3.189,4.33c-0.281,1.842-1.893,3.23-3.75,3.23c-0.189,0-0.379-0.012-0.566-0.041
					l-4.096-0.674L56.098,24.844z"/>
			</g>
			<g>
				<path fill="#FFFFFF" stroke="#FFFFFF" stroke-width="4" stroke-miterlimit="10" d="M137.613,52.652l8.582,0.014l-13.256-17.35
					l10.381-12.441l-7.908,0.18l-7.645,9.213l-0.011-9.09l-6.923,0.01l0.021,15.951l-4.545-1.838l-4.016-1.748l-0.408,0.85
					l1.967,2.75c-1.131,1.273-2.692,2.174-4.506,2.434c-4.081,0.586-7.877-2.26-8.461-6.34c-0.585-4.08,2.26-7.877,6.34-8.463
					c1.84-0.262,3.611,0.184,5.068,1.113l-0.969,2.736l0.627,0.703l2.893-2.396l4.139-3.268c-2.928-3.666-7.665-5.738-12.637-5.027
					c-6.652,0.953-11.506,6.572-11.729,13.068c-2.118-4.816-6.936-8.189-12.525-8.189c-7.541,0-13.68,6.135-13.68,13.678
					s6.139,13.678,13.68,13.678c7.383,0,13.415-5.881,13.666-13.205c2.406,5.486,8.254,8.941,14.469,8.053
					c4.893-0.701,8.805-3.934,10.627-8.178l0.01,9.6l-3.67,2.135l0.148,1.496l6.053,0.023v-0.014l4.396-0.006L127.779,41.5
					l0.688-0.822L137.613,52.652z M82.094,46.678c-4.123,0-7.478-3.354-7.478-7.477s3.354-7.477,7.478-7.477
					c4.121,0,7.477,3.354,7.477,7.477S86.215,46.678,82.094,46.678z"/>
			</g>
		</g>
		<g>
			
				<rect x="187.827" y="28.884" transform="matrix(0.8133 0.5818 -0.5818 0.8133 55.9681 -110.1905)" fill="#FFFFFF" stroke="#FFFFFF" stroke-width="4" stroke-miterlimit="10" width="23.751" height="6.48"/>
		</g>
		<g>
			<polygon fill="#FFFFFF" stroke="#FFFFFF" stroke-width="4" stroke-miterlimit="10" points="201.904,37.629 207.478,41.666 
				209.348,39.053 209.84,35.393 205.525,32.307 			"/>
		</g>
		<g>
			<polygon fill="#FFFFFF" stroke="#FFFFFF" stroke-width="4" stroke-miterlimit="10" points="198.417,27.223 193.193,23.486 
				190.627,24.396 188.158,27.85 200.65,36.783 			"/>
		</g>
		<g>
			<polygon fill="#FFFFFF" stroke="#FFFFFF" stroke-width="4" stroke-miterlimit="10" points="193.971,52.697 184.531,24.354 
				178.062,26.508 186.784,52.697 			"/>
		</g>
		<g>
			<polygon fill="#FFFFFF" stroke="#FFFFFF" stroke-width="4" stroke-miterlimit="10" points="185.966,50.244 191.258,51.174 
				192.015,46.826 191.135,44.182 191.12,44.174 184.456,45.707 			"/>
		</g>
		<g>
			
				<rect x="148.577" y="45.613" fill="#FFFFFF" stroke="#FFFFFF" stroke-width="4" stroke-miterlimit="10" width="18.782" height="7.1"/>
		</g>
		<g>
			<polygon fill="#FFFFFF" stroke="#FFFFFF" stroke-width="4" stroke-miterlimit="10" points="149.605,47.318 151.037,52.713 
				154.174,52.713 158.557,51.646 156.859,45.613 150.283,45.613 			"/>
		</g>
		<g>
			
				<rect x="174.459" y="42.762" transform="matrix(-0.9896 -0.1436 0.1436 -0.9896 356.9093 117.3656)" fill="#FFFFFF" stroke="#FFFFFF" stroke-width="4" stroke-miterlimit="10" width="16.466" height="6.073"/>
		</g>
		<g>
			
				<rect x="141.595" y="38.559" transform="matrix(-0.2562 -0.9666 0.9666 -0.2562 149.0568 198.7283)" fill="#FFFFFF" stroke="#FFFFFF" stroke-width="4" stroke-miterlimit="10" width="18.783" height="6.914"/>
		</g>
		<g>
			
				<rect x="232.983" y="31.88" transform="matrix(-0.1149 -0.9934 0.9934 -0.1149 233.6505 278.1915)" fill="#FFFFFF" stroke="#FFFFFF" stroke-width="4" stroke-miterlimit="10" width="15.554" height="6.247"/>
		</g>
		<g>
			
				<rect x="200.76" y="28.954" transform="matrix(0.6744 -0.7384 0.7384 0.6744 44.9427 166.5601)" fill="#FFFFFF" stroke="#FFFFFF" stroke-width="4" stroke-miterlimit="10" width="21.105" height="6.743"/>
		</g>
		<g>
			<polygon fill="#FFFFFF" stroke="#FFFFFF" stroke-width="4" stroke-miterlimit="10" points="204.201,52.697 195.268,20.807 
				188.641,22.664 197.054,52.697 			"/>
		</g>
		<g>
			<polygon fill="#FFFFFF" stroke="#FFFFFF" stroke-width="4" stroke-miterlimit="10" points="227.966,52.697 230.428,24.941 
				224.345,24.402 221.834,52.697 			"/>
		</g>
		<g>
			<polygon fill="#FFFFFF" stroke="#FFFFFF" stroke-width="4" stroke-miterlimit="10" points="153.135,36.627 152.572,34.502 
				148.603,36.365 			"/>
		</g>
		<g>
			<polygon fill="#FFFFFF" stroke="#FFFFFF" stroke-width="4" stroke-miterlimit="10" points="183.664,24.643 180.588,34.094 
				182.439,39.65 186.414,30.014 185.184,26.318 183.7,24.631 			"/>
		</g>
		<g>
			<polygon fill="#FFFFFF" stroke="#FFFFFF" stroke-width="4" stroke-miterlimit="10" points="177.48,48.111 179.498,48.404 
				181.359,42.537 179.279,42.236 			"/>
		</g>
		<g>
			<polygon fill="#FFFFFF" stroke="#FFFFFF" stroke-width="4" stroke-miterlimit="10" points="176.885,52.697 185.988,24.748 
				179.577,22.658 169.791,52.697 			"/>
		</g>
		<g>
			<polygon fill="#FFFFFF" stroke="#FFFFFF" stroke-width="4" stroke-miterlimit="10" points="211.594,37.018 220.914,26.807 
				215.939,22.26 211.594,27.02 			"/>
		</g>
		<g>
			<polygon fill="#FFFFFF" stroke="#FFFFFF" stroke-width="4" stroke-miterlimit="10" points="219.188,52.697 219.646,22.439 
				212.938,22.338 212.477,52.697 			"/>
		</g>
		<g>
			<polygon fill="#FFFFFF" stroke="#FFFFFF" stroke-width="4" stroke-miterlimit="10" points="222.271,47.77 228.527,46.357 
				228.719,44.189 222.545,44.701 			"/>
		</g>
		<g>
			
				<rect x="221.159" y="39.037" transform="matrix(0.9826 -0.1857 0.1857 0.9826 -3.696 44.1416)" fill="#FFFFFF" stroke="#FFFFFF" stroke-width="4" stroke-miterlimit="10" width="25.208" height="5.524"/>
		</g>
		<g>
			<polygon fill="#FFFFFF" stroke="#FFFFFF" stroke-width="4" stroke-miterlimit="10" points="226.477,30.994 229.779,32.232 
				230.428,24.941 226.602,24.602 			"/>
		</g>
		<g>
			<polygon fill="#FFFFFF" stroke="#FFFFFF" stroke-width="4" stroke-miterlimit="10" points="244.107,37.029 237.986,38.15 
				237.855,36.918 			"/>
		</g>
		<g>
			<polygon fill="#FFFFFF" stroke="#FFFFFF" stroke-width="4" stroke-miterlimit="10" points="243.408,30.721 242.971,26.92 
				239.52,27.318 237.326,32.316 237.457,33.527 243.268,33.629 			"/>
		</g>
		<g>
			
				<rect x="226.852" y="26.176" transform="matrix(0.9879 0.1549 -0.1549 0.9879 7.3748 -36.108)" fill="#FFFFFF" stroke="#FFFFFF" stroke-width="4" stroke-miterlimit="10" width="16.994" height="6.172"/>
		</g>
		<g>
			
				<rect x="147.224" y="26.713" transform="matrix(-0.96 0.28 -0.28 -0.96 315.447 15.5202)" fill="#FFFFFF" stroke="#FFFFFF" stroke-width="4" stroke-miterlimit="10" width="18.782" height="7.165"/>
		</g>
		<g>
			<path fill="#FFFFFF" stroke="#FFFFFF" stroke-width="4" stroke-miterlimit="10" d="M164.436,26.115
				c0,0.432-0.35,0.783-0.781,0.783c-0.436,0-0.785-0.352-0.785-0.783c0-0.434,0.35-0.785,0.785-0.785
				C164.086,25.33,164.436,25.682,164.436,26.115z"/>
		</g>
		<g>
			
				<rect x="163.648" y="25.588" fill="#FFFFFF" stroke="#FFFFFF" stroke-width="4" stroke-miterlimit="10" width="0.193" height="1.1"/>
		</g>
		<g>
			
				<rect x="163.466" y="25.588" fill="#FFFFFF" stroke="#FFFFFF" stroke-width="4" stroke-miterlimit="10" width="0.192" height="1.1"/>
		</g>
		<g>
			<circle fill="#FFFFFF" stroke="#FFFFFF" stroke-width="4" stroke-miterlimit="10" cx="165.054" cy="30.136" r="0.783"/>
		</g>
		<g>
			
				<rect x="165.039" y="29.537" transform="matrix(0.702 -0.7122 0.7122 0.702 27.7827 126.5708)" fill="#FFFFFF" stroke="#FFFFFF" stroke-width="4" stroke-miterlimit="10" width="0.192" height="1.099"/>
		</g>
		<g>
			
				<rect x="164.911" y="29.669" transform="matrix(0.7122 -0.702 0.702 0.7122 26.2794 124.5327)" fill="#FFFFFF" stroke="#FFFFFF" stroke-width="4" stroke-miterlimit="10" width="0.192" height="1.099"/>
		</g>
		<g>
			<circle fill="#FFFFFF" stroke="#FFFFFF" stroke-width="4" stroke-miterlimit="10" cx="149.562" cy="34.604" r="0.782"/>
		</g>
		<g>
			
				<rect x="149.544" y="34.005" transform="matrix(0.7071 -0.7071 0.7071 0.7071 19.3957 115.9328)" fill="#FFFFFF" stroke="#FFFFFF" stroke-width="4" stroke-miterlimit="10" width="0.193" height="1.097"/>
		</g>
		<g>
			
				<rect x="149.416" y="34.135" transform="matrix(0.7071 -0.7071 0.7071 0.7071 19.2656 115.8803)" fill="#FFFFFF" stroke="#FFFFFF" stroke-width="4" stroke-miterlimit="10" width="0.193" height="1.099"/>
		</g>
		<g>
			<circle fill="#FFFFFF" stroke="#FFFFFF" stroke-width="4" stroke-miterlimit="10" cx="155.181" cy="49.255" r="0.783"/>
		</g>
		<g>
			
				<rect x="155.165" y="48.657" transform="matrix(0.7071 -0.7071 0.7071 0.7071 10.6812 124.1987)" fill="#FFFFFF" stroke="#FFFFFF" stroke-width="4" stroke-miterlimit="10" width="0.193" height="1.098"/>
		</g>
		<g>
			
				<rect x="155.037" y="48.787" transform="matrix(0.702 -0.7122 0.7122 0.702 11.0928 125.1841)" fill="#FFFFFF" stroke="#FFFFFF" stroke-width="4" stroke-miterlimit="10" width="0.192" height="1.099"/>
		</g>
		<g>
			<circle fill="#FFFFFF" stroke="#FFFFFF" stroke-width="4" stroke-miterlimit="10" cx="150.978" cy="50.408" r="0.783"/>
		</g>
		<g>
			
				<rect x="150.969" y="49.897" transform="matrix(0.9867 0.1627 -0.1627 0.9867 10.2242 -23.9131)" fill="#FFFFFF" stroke="#FFFFFF" stroke-width="4" stroke-miterlimit="10" width="0.192" height="1.099"/>
		</g>
		<g>
			
				<rect x="150.789" y="49.868" transform="matrix(0.9867 0.1627 -0.1627 0.9867 10.217 -23.8842)" fill="#FFFFFF" stroke="#FFFFFF" stroke-width="4" stroke-miterlimit="10" width="0.192" height="1.098"/>
		</g>
		<g>
			<circle fill="#FFFFFF" stroke="#FFFFFF" stroke-width="4" stroke-miterlimit="10" cx="181.548" cy="27.107" r="0.785"/>
		</g>
		<g>
			
				<rect x="181.538" y="26.595" transform="matrix(0.9853 0.1709 -0.1709 0.9853 7.3121 -30.645)" fill="#FFFFFF" stroke="#FFFFFF" stroke-width="4" stroke-miterlimit="10" width="0.194" height="1.099"/>
		</g>
		<g>
			
				<rect x="181.356" y="26.565" transform="matrix(0.9872 0.1595 -0.1595 0.9872 6.6503 -28.6029)" fill="#FFFFFF" stroke="#FFFFFF" stroke-width="4" stroke-miterlimit="10" width="0.196" height="1.099"/>
		</g>
		<g>
			<circle fill="#FFFFFF" stroke="#FFFFFF" stroke-width="4" stroke-miterlimit="10" cx="178.381" cy="43.062" r="0.784"/>
		</g>
		<g>
			
				<rect x="178.371" y="42.547" transform="matrix(0.9869 0.1611 -0.1611 0.9869 9.2765 -28.1937)" fill="#FFFFFF" stroke="#FFFFFF" stroke-width="4" stroke-miterlimit="10" width="0.194" height="1.1"/>
		</g>
		<g>
			
				<rect x="178.19" y="42.518" transform="matrix(0.9867 0.1627 -0.1627 0.9867 9.3864 -28.4417)" fill="#FFFFFF" stroke="#FFFFFF" stroke-width="4" stroke-miterlimit="10" width="0.192" height="1.1"/>
		</g>
		<g>
			<path fill="#FFFFFF" stroke="#FFFFFF" stroke-width="4" stroke-miterlimit="10" d="M178.019,46.842
				c-0.07,0.426-0.474,0.717-0.901,0.646s-0.717-0.473-0.646-0.898c0.07-0.43,0.473-0.719,0.9-0.648S178.088,46.414,178.019,46.842z
				"/>
		</g>
		<g>
			
				<rect x="177.234" y="46.202" transform="matrix(0.9867 0.1627 -0.1627 0.9867 9.9731 -28.237)" fill="#FFFFFF" stroke="#FFFFFF" stroke-width="4" stroke-miterlimit="10" width="0.192" height="1.1"/>
		</g>
		<g>
			
				<rect x="177.052" y="46.172" transform="matrix(0.9869 0.1611 -0.1611 0.9869 9.8433 -27.9339)" fill="#FFFFFF" stroke="#FFFFFF" stroke-width="4" stroke-miterlimit="10" width="0.194" height="1.1"/>
		</g>
		<g>
			<circle fill="#FFFFFF" stroke="#FFFFFF" stroke-width="4" stroke-miterlimit="10" cx="188.895" cy="45.254" r="0.784"/>
		</g>
		<g>
			
				<rect x="188.884" y="44.741" transform="matrix(0.9869 0.1611 -0.1611 0.9869 9.7673 -29.8591)" fill="#FFFFFF" stroke="#FFFFFF" stroke-width="4" stroke-miterlimit="10" width="0.194" height="1.1"/>
		</g>
		<g>
			
				<rect x="188.705" y="44.71" transform="matrix(0.9869 0.1611 -0.1611 0.9869 9.7599 -29.8306)" fill="#FFFFFF" stroke="#FFFFFF" stroke-width="4" stroke-miterlimit="10" width="0.194" height="1.1"/>
		</g>
		<g>
			<circle fill="#FFFFFF" stroke="#FFFFFF" stroke-width="4" stroke-miterlimit="10" cx="193.523" cy="27.472" r="0.784"/>
		</g>
		<g>
			
				<rect x="193.514" y="26.959" transform="matrix(0.9881 0.1536 -0.1536 0.9881 6.5227 -29.4112)" fill="#FFFFFF" stroke="#FFFFFF" stroke-width="4" stroke-miterlimit="10" width="0.191" height="1.1"/>
		</g>
		<g>
			
				<rect x="193.332" y="26.931" transform="matrix(0.9851 0.1718 -0.1718 0.9851 7.5951 -32.8163)" fill="#FFFFFF" stroke="#FFFFFF" stroke-width="4" stroke-miterlimit="10" width="0.193" height="1.098"/>
		</g>
		<g>
			<circle fill="#FFFFFF" stroke="#FFFFFF" stroke-width="4" stroke-miterlimit="10" cx="216.623" cy="26.295" r="0.783"/>
		</g>
		<g>
			
				<rect x="216.613" y="25.784" transform="matrix(0.9867 0.1627 -0.1627 0.9867 7.175 -34.9181)" fill="#FFFFFF" stroke="#FFFFFF" stroke-width="4" stroke-miterlimit="10" width="0.192" height="1.098"/>
		</g>
		<g>
			
				<rect x="216.431" y="25.753" transform="matrix(0.9867 0.1627 -0.1627 0.9867 7.1676 -34.889)" fill="#FFFFFF" stroke="#FFFFFF" stroke-width="4" stroke-miterlimit="10" width="0.192" height="1.1"/>
		</g>
		<g>
			<path fill="#FFFFFF" stroke="#FFFFFF" stroke-width="4" stroke-miterlimit="10" d="M207.246,35.109
				c-0.068,0.426-0.473,0.717-0.898,0.646c-0.43-0.07-0.717-0.475-0.646-0.9c0.068-0.428,0.471-0.717,0.898-0.646
				S207.316,34.684,207.246,35.109z"/>
		</g>
		<g>
			
				<rect x="206.464" y="34.471" transform="matrix(0.9868 0.1619 -0.1619 0.9868 8.3974 -32.9874)" fill="#FFFFFF" stroke="#FFFFFF" stroke-width="4" stroke-miterlimit="10" width="0.193" height="1.098"/>
		</g>
		<g>
			
				<rect x="206.282" y="34.44" transform="matrix(0.9869 0.1611 -0.1611 0.9869 8.3348 -32.7971)" fill="#FFFFFF" stroke="#FFFFFF" stroke-width="4" stroke-miterlimit="10" width="0.194" height="1.1"/>
		</g>
		<g>
			<path fill="#FFFFFF" stroke="#FFFFFF" stroke-width="4" stroke-miterlimit="10" d="M204.932,37.869
				c-0.068,0.428-0.472,0.719-0.898,0.646c-0.43-0.068-0.717-0.473-0.646-0.898c0.07-0.428,0.471-0.719,0.898-0.648
				S205.004,37.441,204.932,37.869z"/>
		</g>
		<g>
			
				<rect x="204.149" y="37.232" transform="matrix(0.9851 0.1718 -0.1718 0.9851 9.5252 -34.5213)" fill="#FFFFFF" stroke="#FFFFFF" stroke-width="4" stroke-miterlimit="10" width="0.193" height="1.099"/>
		</g>
		<g>
			
				<rect x="203.969" y="37.203" transform="matrix(0.985 0.1726 -0.1726 0.985 9.5806 -34.6604)" fill="#FFFFFF" stroke="#FFFFFF" stroke-width="4" stroke-miterlimit="10" width="0.192" height="1.098"/>
		</g>
		<g>
			<circle fill="#FFFFFF" stroke="#FFFFFF" stroke-width="4" stroke-miterlimit="10" cx="228.679" cy="28.853" r="0.783"/>
		</g>
		<g>
			
				<rect x="228.67" y="28.339" transform="matrix(0.9883 0.1528 -0.1528 0.9883 7.1022 -34.6213)" fill="#FFFFFF" stroke="#FFFFFF" stroke-width="4" stroke-miterlimit="10" width="0.192" height="1.101"/>
		</g>
		<g>
			
				<rect x="228.489" y="28.311" transform="matrix(0.9867 0.1627 -0.1627 0.9867 7.7446 -36.8173)" fill="#FFFFFF" stroke="#FFFFFF" stroke-width="4" stroke-miterlimit="10" width="0.192" height="1.098"/>
		</g>
		<g>
			<circle fill="#FFFFFF" stroke="#FFFFFF" stroke-width="4" stroke-miterlimit="10" cx="227.624" cy="41.721" r="0.783"/>
		</g>
		<g>
			
				<rect x="227.614" y="41.207" transform="matrix(0.9869 0.1611 -0.1611 0.9869 9.704 -36.1458)" fill="#FFFFFF" stroke="#FFFFFF" stroke-width="4" stroke-miterlimit="10" width="0.194" height="1.101"/>
		</g>
		<g>
			
				<rect x="227.433" y="41.181" transform="matrix(0.9851 0.1718 -0.1718 0.9851 10.5496 -38.462)" fill="#FFFFFF" stroke="#FFFFFF" stroke-width="4" stroke-miterlimit="10" width="0.193" height="1.098"/>
		</g>
		<g>
			<path fill="#FFFFFF" stroke="#FFFFFF" stroke-width="4" stroke-miterlimit="10" d="M224.621,44.934
				c-0.068,0.428-0.473,0.717-0.898,0.646c-0.43-0.068-0.717-0.473-0.646-0.9c0.068-0.426,0.471-0.717,0.898-0.646
				S224.691,44.506,224.621,44.934z"/>
		</g>
		<g>
			
				<rect x="223.838" y="44.293" transform="matrix(0.9869 0.1611 -0.1611 0.9869 10.1519 -35.4971)" fill="#FFFFFF" stroke="#FFFFFF" stroke-width="4" stroke-miterlimit="10" width="0.194" height="1.101"/>
		</g>
		<g>
			
				<rect x="223.656" y="44.266" transform="matrix(0.9872 0.1595 -0.1595 0.9872 10.0163 -35.125)" fill="#FFFFFF" stroke="#FFFFFF" stroke-width="4" stroke-miterlimit="10" width="0.196" height="1.098"/>
		</g>
		<g>
			<circle fill="#FFFFFF" stroke="#FFFFFF" stroke-width="4" stroke-miterlimit="10" cx="242.238" cy="40.22" r="0.784"/>
		</g>
		<g>
			
				<rect x="242.23" y="39.705" transform="matrix(0.988 0.1544 -0.1544 0.988 9.1196 -36.9267)" fill="#FFFFFF" stroke="#FFFFFF" stroke-width="4" stroke-miterlimit="10" width="0.19" height="1.102"/>
		</g>
		<g>
			
				<rect x="242.048" y="39.676" transform="matrix(0.9869 0.1611 -0.1611 0.9869 9.6459 -38.4916)" fill="#FFFFFF" stroke="#FFFFFF" stroke-width="4" stroke-miterlimit="10" width="0.194" height="1.1"/>
		</g>
		<g>
			<path fill="#FFFFFF" stroke="#FFFFFF" stroke-width="4" stroke-miterlimit="10" d="M242.2,30.846
				c-0.069,0.428-0.473,0.719-0.899,0.648c-0.43-0.07-0.719-0.473-0.648-0.9c0.072-0.426,0.473-0.719,0.9-0.646
				C241.98,30.016,242.271,30.418,242.2,30.846z"/>
		</g>
		<g>
			
				<rect x="241.418" y="30.208" transform="matrix(0.9867 0.1627 -0.1627 0.9867 8.2258 -38.8961)" fill="#FFFFFF" stroke="#FFFFFF" stroke-width="4" stroke-miterlimit="10" width="0.192" height="1.1"/>
		</g>
		<g>
			
				<rect x="241.236" y="30.178" transform="matrix(0.9869 0.1611 -0.1611 0.9869 8.1047 -38.4849)" fill="#FFFFFF" stroke="#FFFFFF" stroke-width="4" stroke-miterlimit="10" width="0.194" height="1.098"/>
		</g>
	</g>
</g>
<g>
	<path fill="#FFFFFF" stroke="#FFFFFF" stroke-width="4" stroke-miterlimit="10" d="M243.91,53.822c0,1.67-1.311,2.98-3.017,2.98
		c-1.687,0-3.033-1.311-3.033-2.98c0-1.633,1.347-2.943,3.033-2.943C242.6,50.879,243.91,52.189,243.91,53.822z M238.449,53.822
		c0,1.406,1.041,2.521,2.465,2.521c1.385,0,2.406-1.115,2.406-2.504c0-1.404-1.021-2.539-2.426-2.539S238.449,52.436,238.449,53.822
		z M240.428,55.365h-0.684V52.42c0.27-0.051,0.646-0.088,1.133-0.088c0.555,0,0.807,0.088,1.023,0.215
		c0.16,0.127,0.285,0.361,0.285,0.646c0,0.322-0.25,0.574-0.609,0.684v0.035c0.287,0.107,0.449,0.322,0.539,0.721
		c0.09,0.447,0.143,0.627,0.215,0.732h-0.736c-0.088-0.105-0.145-0.375-0.232-0.717c-0.055-0.324-0.234-0.467-0.611-0.467h-0.322
		V55.365z M240.445,53.697h0.322c0.377,0,0.682-0.127,0.682-0.432c0-0.27-0.195-0.447-0.627-0.447c-0.179,0-0.305,0.016-0.377,0.035
		V53.697z"/>
</g>
<g>
	<g>
		<g>
			<g>
				<path d="M35.174,12.566c-0.119-0.029-0.24-0.047-0.354-0.047c-1.433,0-1.919,2.281-2.312,4.115
					c-0.038,0.18-0.076,0.355-0.113,0.523c-0.34,1.527-1.212,4.184-1.519,5.104c0.011-0.359,0.013-0.732-0.004-1.123l-0.003-0.068
					l-0.031-0.061c-0.17-0.318-0.76-1.377-1.227-1.584c-0.212-0.096-0.582-0.154-0.965-0.154c-0.336,0-0.865,0.047-1.256,0.287
					c-0.314-0.453-0.917-1.25-1.369-1.406c-0.199-0.068-0.533-0.111-0.893-0.111c-0.334,0-0.965,0.039-1.436,0.281
					c0.07-1.73,0.176-4.506,0.174-5.457c-0.004-1.371,0.375-5.605,0.381-5.648l0.01-0.127l-0.084-0.098
					c-0.023-0.027-0.607-0.684-1.57-0.684h-0.021c-0.889,0.01-2.473,0.803-2.777,3.721c-0.246,2.369-1.537,15.588-1.797,18.246
					c-0.854-0.484-3.008-1.678-6-3.139c-0.959-0.469-1.865-0.707-2.688-0.707c-2.197,0-3.078,1.645-3.113,1.713L6.08,26.385
					l0.227,0.148c0.083,0.055,8.191,5.404,9.926,7.424c1.601,1.861,4.692,3.684,5.464,4.125l-1.595,17.285h13.615l-0.564-17.674
					c0.16-0.271,0.588-1.137,0.725-2.836c0.152-1.926,0.602-9.65,0.631-10.156c0.145-0.625,2.07-9.006,2.17-10
					c0.006-0.066,0.014-0.131,0.02-0.191C36.805,13.52,36.785,12.982,35.174,12.566z"/>
			</g>
			<g>
				<path d="M33.717,56.531H20.102c-0.326,0-0.639-0.137-0.861-0.379c-0.221-0.244-0.328-0.568-0.299-0.893l1.527-16.549
					c-1.309-0.789-3.713-2.357-5.119-3.994c-1.365-1.588-7.604-5.844-9.684-7.209l-0.224-0.148
					c-0.501-0.328-0.672-0.982-0.396-1.512l0.127-0.244c0.443-0.865,1.82-2.338,4.146-2.338c1.002,0,2.076,0.275,3.197,0.824
					c1.857,0.906,3.398,1.713,4.502,2.311c0.441-4.494,1.416-14.465,1.627-16.492c0.389-3.732,2.65-4.75,3.922-4.766
					c1.5,0,2.389,0.975,2.484,1.084l0.088,0.102c0.204,0.238,0.305,0.545,0.279,0.857l-0.012,0.127
					c-0.061,0.648-0.379,4.357-0.376,5.549c0.001,0.6-0.038,1.949-0.116,4.021c0.074-0.004,0.146-0.006,0.213-0.006
					c0.289,0,0.836,0.023,1.273,0.174c0.299,0.104,0.75,0.336,1.41,1.133c0.305-0.059,0.594-0.076,0.834-0.076
					c0.324,0,0.941,0.033,1.439,0.254c0.108,0.049,0.336,0.148,0.654,0.469c0.209-0.703,0.398-1.391,0.516-1.924l0.102-0.459
					c0.465-2.182,1.088-5.092,3.462-5.092c0.218,0,0.437,0.029,0.649,0.086c2.205,0.566,2.551,1.688,2.387,3.193l-0.018,0.172
					c-0.105,1.055-1.877,8.773-2.172,10.061l-0.014,0.225c-0.391,6.695-0.55,9.057-0.613,9.859c-0.121,1.498-0.451,2.461-0.712,3.01
					l0.555,17.367c0.011,0.316-0.108,0.623-0.328,0.85C34.336,56.402,34.032,56.531,33.717,56.531z M21.381,54.201h11.135
					l-0.527-16.473c-0.008-0.221,0.049-0.439,0.162-0.631c0.074-0.123,0.444-0.814,0.564-2.334c0.062-0.789,0.221-3.133,0.611-9.809
					l0.02-0.324c0.004-0.062,0.013-0.129,0.027-0.191c0.793-3.439,2.076-9.156,2.146-9.854l0.021-0.193
					c0.01-0.092,0.033-0.322,0.031-0.451c-0.079-0.049-0.271-0.139-0.688-0.246l-0.063-0.01c-0.224,0-0.608,0.555-1.173,3.191
					l-0.115,0.535c-0.344,1.549-1.199,4.164-1.551,5.219c-0.184,0.549-0.734,0.879-1.309,0.777c-0.57-0.102-0.979-0.605-0.961-1.182
					c0.008-0.273,0.011-0.553,0.003-0.844c-0.261-0.465-0.499-0.785-0.618-0.902c-0.08-0.018-0.242-0.043-0.449-0.043
					c-0.317,0-0.552,0.057-0.645,0.113c-0.526,0.322-1.214,0.182-1.567-0.326c-0.431-0.621-0.72-0.9-0.828-0.98
					c-0.071-0.014-0.237-0.037-0.478-0.037c-0.371,0-0.726,0.059-0.904,0.152c-0.369,0.188-0.811,0.166-1.16-0.057
					c-0.348-0.223-0.553-0.613-0.535-1.029c0.145-3.598,0.175-4.926,0.174-5.404c-0.004-1.145,0.242-4.117,0.344-5.285
					c-0.116-0.059-0.268-0.109-0.443-0.109c-0.477,0.006-1.42,0.57-1.641,2.674c-0.227,2.189-1.352,13.691-1.721,17.475
					l-0.074,0.766c-0.039,0.393-0.274,0.74-0.623,0.92c-0.352,0.184-0.77,0.174-1.111-0.02c-0.787-0.445-2.938-1.641-5.938-3.105
					c-0.799-0.391-1.533-0.588-2.176-0.588c-0.725,0-1.229,0.244-1.562,0.504c2.137,1.434,7.838,5.328,9.358,7.098
					c1.155,1.346,3.421,2.881,5.158,3.871c0.396,0.227,0.624,0.664,0.583,1.119L21.381,54.201z"/>
				<path d="M33.717,57.16H20.102c-0.502,0-0.985-0.215-1.324-0.584c-0.339-0.373-0.506-0.873-0.461-1.373l1.49-16.16
					c-1.385-0.857-3.582-2.344-4.934-3.916c-1.221-1.42-6.961-5.393-9.551-7.094L5.1,27.885c-0.775-0.508-1.037-1.508-0.608-2.33
					l0.126-0.242c0.508-0.99,2.074-2.676,4.703-2.676c1.098,0,2.266,0.299,3.473,0.889c1.264,0.617,2.502,1.246,3.693,1.877
					c0.479-4.891,1.338-13.658,1.536-15.559c0.433-4.172,3.058-5.312,4.54-5.328c1.743,0,2.775,1.082,2.963,1.299l0.092,0.105
					c0.311,0.363,0.467,0.842,0.428,1.316l-0.01,0.127c-0.061,0.641-0.379,4.338-0.375,5.496c0.002,0.539-0.03,1.684-0.093,3.404
					c0.329,0.023,0.704,0.076,1.04,0.193c0.316,0.109,0.801,0.338,1.453,1.055c0.189-0.021,0.387-0.033,0.586-0.033
					c0.373,0,1.092,0.041,1.693,0.309c0.012,0.006,0.025,0.01,0.041,0.018c0.112-0.408,0.201-0.754,0.262-1.033l0.1-0.457
					c0.476-2.225,1.195-5.588,4.077-5.588c0.271,0,0.544,0.035,0.812,0.107c2.818,0.727,3.004,2.449,2.85,3.869l-0.018,0.172
					c-0.104,1.031-1.674,7.908-2.174,10.082l-0.01,0.172c-0.391,6.682-0.551,9.055-0.615,9.871c-0.119,1.48-0.436,2.48-0.705,3.088
					l0.549,17.221c0.018,0.482-0.167,0.957-0.502,1.305C34.668,56.963,34.199,57.16,33.717,57.16z M9.32,23.893
					c-2.023,0-3.207,1.256-3.588,1.998l-0.129,0.248c-0.127,0.244-0.049,0.543,0.182,0.695L6.01,26.98
					c0.082,0.055,8.133,5.369,9.816,7.328c1.352,1.572,3.691,3.096,4.967,3.863l0.337,0.203l-1.562,16.941
					c-0.013,0.15,0.036,0.301,0.138,0.412s0.246,0.176,0.396,0.176h13.615c0.145,0,0.285-0.061,0.387-0.164
					c0.1-0.104,0.154-0.246,0.15-0.391l-0.559-17.521l0.064-0.137c0.234-0.494,0.539-1.379,0.652-2.791
					c0.064-0.809,0.223-3.176,0.614-9.846l0.027-0.328c0.948-4.121,2.081-9.209,2.159-9.982l0.02-0.176
					c0.143-1.307-0.117-2.055-1.92-2.52c-0.166-0.045-0.33-0.066-0.493-0.066c-1.728,0-2.312,2.082-2.849,4.596l-0.102,0.463
					c-0.107,0.488-0.283,1.148-0.527,1.967l-0.301,1.02l-0.746-0.754c-0.234-0.234-0.385-0.303-0.465-0.338
					c-0.406-0.18-0.962-0.201-1.184-0.201c-0.25,0-0.49,0.021-0.715,0.066l-0.367,0.07l-0.236-0.287
					c-0.637-0.77-1.008-0.896-1.131-0.939c-0.293-0.1-0.729-0.156-1.256-0.137l-0.679,0.029l0.025-0.68
					c0.079-2.064,0.118-3.408,0.116-3.994c-0.004-1.223,0.316-4.93,0.379-5.609l0.009-0.121c0.013-0.145-0.032-0.283-0.128-0.395
					l-0.088-0.102c-0.029-0.031-0.77-0.865-2.008-0.865c-1.059,0.012-2.955,0.91-3.297,4.203
					c-0.209,2.006-1.158,11.701-1.613,16.361L17.554,27.4l-0.832-0.449c-1.429-0.771-2.937-1.545-4.479-2.299
					C11.209,24.148,10.225,23.893,9.32,23.893z M33.162,54.83H20.691l1.54-16.699c0.019-0.211-0.087-0.412-0.269-0.516
					c-1.783-1.018-4.117-2.605-5.322-4.008c-1.496-1.74-7.443-5.787-9.232-6.986l-0.721-0.482l0.686-0.533
					c1.072-0.836,2.633-0.85,4.398,0.014c3.002,1.467,5.176,2.672,5.971,3.123c0.157,0.088,0.354,0.092,0.512,0.01
					c0.162-0.084,0.27-0.244,0.287-0.426l0.113-1.145c0.4-4.096,1.465-14.975,1.684-17.098c0.266-2.541,1.545-3.23,2.258-3.238
					c0.256,0,0.502,0.061,0.733,0.178l0.38,0.191l-0.037,0.422c-0.105,1.203-0.346,4.119-0.342,5.23
					c0.002,0.488-0.028,1.828-0.174,5.434c-0.008,0.189,0.086,0.371,0.247,0.473c0.157,0.1,0.368,0.111,0.534,0.025
					c0.387-0.197,0.963-0.219,1.191-0.219c0.32,0,0.527,0.035,0.604,0.051l0.137,0.027l0.113,0.082
					c0.116,0.088,0.445,0.373,0.969,1.125c0.156,0.225,0.486,0.295,0.723,0.15c0.289-0.18,0.734-0.205,0.973-0.205
					c0.293,0,0.505,0.039,0.582,0.055l0.179,0.039l0.13,0.129c0.193,0.189,0.471,0.588,0.725,1.041l0.076,0.137l0.004,0.154
					c0.008,0.305,0.006,0.598-0.004,0.881c-0.008,0.264,0.182,0.498,0.442,0.543c0.261,0.047,0.521-0.105,0.604-0.357
					c0.35-1.047,1.197-3.648,1.533-5.156l0.115-0.531c0.666-3.117,1.123-3.686,1.786-3.686l0.159,0.016
					c0.436,0.109,0.725,0.215,0.912,0.326l0.3,0.178l0.009,0.348c0.002,0.145-0.021,0.402-0.035,0.521l-0.021,0.203
					c-0.081,0.816-1.585,7.445-2.158,9.93c-0.006,0.031-0.01,0.059-0.012,0.086l-0.02,0.326c-0.39,6.672-0.549,9.023-0.611,9.822
					c-0.129,1.615-0.53,2.4-0.65,2.604c-0.053,0.088-0.078,0.189-0.074,0.293L33.162,54.83z M22.068,53.574h9.797L31.36,37.75
					c-0.01-0.342,0.077-0.678,0.25-0.971c0.015-0.025,0.364-0.631,0.479-2.064c0.062-0.793,0.221-3.135,0.609-9.797l0.02-0.322
					c0.006-0.102,0.02-0.199,0.043-0.299c0.922-4.008,1.906-8.436,2.1-9.561c-0.145,0.398-0.348,1.09-0.6,2.271l-0.117,0.537
					c-0.334,1.512-1.125,3.959-1.568,5.285c-0.279,0.83-1.123,1.352-2.014,1.197c-0.871-0.156-1.508-0.938-1.48-1.82
					c0.008-0.213,0.011-0.428,0.008-0.65c-0.127-0.215-0.238-0.377-0.318-0.486c-0.039-0.004-0.08-0.004-0.125-0.004
					c-0.199,0-0.326,0.027-0.352,0.039c-0.248,0.154-0.572,0.246-0.902,0.246c-0.588,0-1.139-0.287-1.473-0.77
					c-0.281-0.402-0.479-0.627-0.59-0.74c-0.053-0.002-0.119-0.008-0.201-0.008c-0.334,0-0.564,0.057-0.619,0.084
					c-0.551,0.283-1.252,0.252-1.781-0.084c-0.536-0.344-0.854-0.951-0.828-1.584c0.146-3.584,0.176-4.904,0.174-5.379
					c-0.002-0.979,0.17-3.229,0.287-4.645c-0.264,0.219-0.646,0.768-0.773,1.988c-0.221,2.117-1.283,12.996-1.684,17.088
					l-0.112,1.146c-0.06,0.607-0.419,1.137-0.959,1.418c-0.526,0.273-1.192,0.262-1.71-0.033c-0.785-0.443-2.931-1.637-5.902-3.088
					c-0.818-0.398-1.542-0.574-2.141-0.512c2.648,1.803,7.145,4.963,8.513,6.555c1.101,1.281,3.302,2.77,4.993,3.734
					c0.607,0.348,0.961,1.023,0.896,1.723L22.068,53.574z"/>
			</g>
		</g>
		<g>
			<g>
				<path fill="#FFFFFF" d="M34.209,24.658c0,0,2.068-8.982,2.17-9.986c0.1-1.004,0.258-1.416-1.279-1.812s-1.99,2.473-2.412,4.365
					c-0.42,1.895-1.637,5.461-1.637,5.461l-7.721-2.928c0,0,0.238-5.49,0.236-6.891c-0.004-1.402,0.381-5.676,0.381-5.676
					s-0.514-0.59-1.361-0.58c-0.85,0.008-2.204,0.795-2.48,3.449c-0.275,2.652-1.844,18.707-1.844,18.707s-2.445-1.434-6.387-3.361
					c-3.943-1.926-5.402,0.875-5.402,0.875s8.205,5.404,9.99,7.48c1.781,2.074,5.551,4.152,5.551,4.152l-1.58,17.152h12.971
					L32.85,37.609c0,0,0.567-0.773,0.727-2.775C33.736,32.834,34.209,24.658,34.209,24.658z"/>
			</g>
		</g>
		<g>
			<g>
				<path d="M33.717,55.367H20.102l1.595-17.285c-0.771-0.441-3.863-2.264-5.464-4.125c-1.734-2.02-9.843-7.369-9.926-7.424
					L6.08,26.385l0.127-0.242c0.035-0.068,0.916-1.713,3.113-1.713c0.822,0,1.729,0.238,2.688,0.707
					c2.992,1.461,5.146,2.654,6,3.139c0.26-2.658,1.551-15.877,1.797-18.246c0.305-2.918,1.889-3.711,2.777-3.721h0.021
					c0.963,0,1.547,0.656,1.57,0.684l0.084,0.098l-0.01,0.127c-0.006,0.043-0.385,4.277-0.381,5.648
					c0.002,1.25-0.182,5.643-0.225,6.686l7.223,2.742c0.297-0.893,1.186-3.592,1.529-5.135c0.037-0.168,0.075-0.344,0.113-0.523
					c0.393-1.834,0.879-4.115,2.312-4.115c0.114,0,0.235,0.018,0.354,0.047c1.611,0.416,1.631,0.953,1.523,1.943
					c-0.006,0.061-0.014,0.125-0.02,0.191c-0.1,0.994-2.025,9.375-2.17,10c-0.029,0.506-0.479,8.23-0.631,10.156
					c-0.137,1.699-0.564,2.564-0.725,2.836L33.717,55.367z M20.763,54.766h12.332l-0.55-17.25l0.062-0.086
					c0.004-0.004,0.521-0.752,0.669-2.619c0.158-1.977,0.627-10.088,0.633-10.17l0.008-0.051c0.02-0.088,2.066-8.975,2.162-9.949
					c0.008-0.066,0.014-0.133,0.02-0.195c0.09-0.82,0.107-0.99-1.074-1.295c-0.07-0.018-0.139-0.027-0.204-0.027
					c-0.946,0-1.395,2.1-1.722,3.637c-0.038,0.182-0.078,0.361-0.115,0.531c-0.419,1.889-1.596,5.346-1.646,5.494l-0.102,0.293
					l-8.213-3.117l0.008-0.217c0.004-0.055,0.238-5.498,0.234-6.877c-0.004-1.27,0.303-4.791,0.371-5.561
					c-0.159-0.135-0.527-0.395-1.031-0.395c-0.705,0.006-1.938,0.684-2.199,3.18c-0.273,2.621-1.826,18.545-1.842,18.705
					l-0.045,0.469l-0.408-0.238c-0.023-0.014-2.48-1.451-6.367-3.35c-0.877-0.43-1.691-0.645-2.422-0.645
					c-1.375,0-2.135,0.77-2.431,1.164c1.417,0.939,8.167,5.467,9.8,7.369c1.727,2.01,5.432,4.064,5.471,4.084l0.172,0.094
					L20.763,54.766z"/>
			</g>
		</g>
		<g>
			<g>
				<path fill="#FFFFFF" d="M30.572,21.15c0,0-0.674-1.268-1.084-1.449c-0.41-0.184-1.84-0.25-2.203,0.371
					c0,0-0.791,6.975-0.883,8.305c-0.088,1.33,0.259,1.607,0.867,1.732c0.612,0.125,1.509,0.381,1.889-1.322
					C29.561,27,30.715,24.756,30.572,21.15z"/>
			</g>
		</g>
		<g>
			<g>
				<path d="M27.91,30.502L27.91,30.502c-0.23,0-0.443-0.045-0.633-0.084l-0.066-0.014c-0.896-0.184-1.195-0.738-1.108-2.047
					c0.089-1.322,0.85-8.035,0.882-8.318l0.009-0.062l0.03-0.057c0.332-0.562,1.16-0.648,1.623-0.648
					c0.383,0,0.753,0.059,0.965,0.154c0.467,0.207,1.057,1.266,1.227,1.584l0.031,0.061l0.003,0.068
					c0.108,2.713-0.503,4.66-0.992,6.225c-0.167,0.531-0.325,1.033-0.427,1.49C29.205,29.963,28.7,30.502,27.91,30.502z
					 M27.575,20.182c-0.087,0.754-0.788,6.982-0.871,8.215c-0.085,1.271,0.245,1.338,0.628,1.416l0.07,0.016
					c0.166,0.035,0.341,0.072,0.508,0.072h0.002c0.207,0,0.691-0.004,0.953-1.18c0.107-0.48,0.27-0.994,0.439-1.539
					c0.473-1.506,1.059-3.375,0.969-5.951c-0.301-0.553-0.727-1.174-0.908-1.254c-0.111-0.051-0.395-0.102-0.719-0.102
					C28.141,19.875,27.73,19.994,27.575,20.182z"/>
			</g>
		</g>
		<g>
			<g>
				<path fill="#FFFFFF" d="M27.289,19.947c0,0-0.88-1.344-1.365-1.51c-0.484-0.168-2.271-0.184-2.502,0.586
					c-0.836,2.797-0.324,7.75-0.318,9.223c0.01,1.473,0.438,2.322,1.15,2.41c0.711,0.09,1.771,0.707,2.016-0.971
					C26.547,27.775,27.289,19.947,27.289,19.947z"/>
			</g>
		</g>
		<g>
			<g>
				<path d="M25.307,31.143L25.307,31.143c-0.248,0-0.5-0.061-0.725-0.113c-0.133-0.029-0.258-0.061-0.367-0.072
					c-0.521-0.066-1.398-0.506-1.412-2.711c-0.001-0.297-0.023-0.738-0.053-1.297c-0.108-2.148-0.293-5.744,0.385-8.012
					c0.24-0.807,1.475-0.896,1.994-0.896c0.359,0,0.693,0.043,0.893,0.111c0.541,0.188,1.302,1.295,1.52,1.629l0.059,0.09
					l-0.01,0.105c-0.008,0.078-0.747,7.857-1.021,9.752C26.432,30.666,26.008,31.143,25.307,31.143z M25.129,18.645
					c-0.752,0-1.334,0.191-1.416,0.467c-0.648,2.168-0.469,5.697-0.361,7.807c0.029,0.566,0.052,1.014,0.055,1.324
					c0.008,1.256,0.338,2.049,0.883,2.115c0.142,0.018,0.289,0.053,0.432,0.086c0.201,0.047,0.408,0.096,0.586,0.096h0.004
					c0.186,0,0.531-0.002,0.662-0.896c0.254-1.76,0.917-8.674,1.008-9.617c-0.393-0.582-0.928-1.225-1.154-1.305
					C25.715,18.684,25.457,18.645,25.129,18.645z"/>
			</g>
		</g>
		<g>
			<g>
				<path d="M31.395,38.086l0.191,6.217c0,0-0.602-5.094-3.422-5.668C28.164,38.635,29.916,39.018,31.395,38.086z"/>
			</g>
		</g>
		<g>
			<g>
				<path d="M29.86,27.408l2.668,1.012l-3.005-0.617l-0.703,2.051l3.09,3.061l-3.344-2.781l-1.43-0.027l-0.143,2.584l-0.336-2.668
					l-1.039,0.869c0,0-1.629,1.631-2.051,3.119c0,0,0.787-2.529,1.125-3.258l0.561,0.027l0.9-0.646l0.25-0.588l0.957,0.477
					l0.932-0.018l0.359-0.207l0.786-2.389H29.86z"/>
			</g>
		</g>
		<g>
			<g>
				<path d="M30.768,20.92l0.484,0.512l-0.203,0.996c0,0-0.383-0.102-0.383-0.178C30.666,22.172,30.768,20.92,30.768,20.92z"/>
			</g>
		</g>
		<g>
			<g>
				<polygon points="23.264,19.031 21.73,22.164 23.035,27.547 				"/>
			</g>
		</g>
		<g>
			<g>
				<path d="M23.424,38.076l-1.615,15.762h1.139c0,0,0.688-8.016,1.016-9.93s0.387-3.818,2.344-4.934c0,0,1.693-0.748,1.664-3.918
					c0,0-0.549,3.43-2.701,3.314C23.873,38.295,23.424,38.076,23.424,38.076z"/>
			</g>
		</g>
		<g>
			<g>
				<path d="M19.373,27.75l-0.244,1.807l2.617,1.594c0,0-1.193-0.75-1.684-1.701S19.373,27.75,19.373,27.75z"/>
			</g>
		</g>
		<g>
			<g>
				<path d="M28.479,29.717c0,0,0.25-1.041,0.051-1.268c-0.197-0.227-0.828-0.359-0.828-0.359s1.443-0.322,1.195,1.09
					C28.711,30.246,28.479,29.717,28.479,29.717z"/>
			</g>
		</g>
		<g>
			<g>
				<path d="M23.761,30.033c0,0-0.25-1.039-0.052-1.268c0.197-0.229,0.828-0.359,0.828-0.359s-1.441-0.324-1.195,1.09
					C23.527,30.564,23.761,30.033,23.761,30.033z"/>
			</g>
		</g>
	</g>
	<g>
		<g>
			<path d="M250.672,41.414l-1.026-5.43c-0.218-1.158-0.906-2.105-1.829-2.689l-0.155-1.34l0.595-3.795
				c0.322-2.057-0.951-3.996-2.902-4.555c-0.822-0.592-1.836-0.855-2.852-0.74l-0.962,0.109l-8.765-1.373
				c-0.568-0.4-1.244-0.66-1.988-0.727l-6.082-0.537c-0.514-0.047-1.012,0.008-1.48,0.145c-0.684-1.246-1.994-2.102-3.518-2.123
				l-2.709-0.043c-0.4-0.105-0.816-0.156-1.24-0.135c-0.256,0.012-0.508,0.047-0.754,0.105l-2.006-0.029
				c-2.242-0.047-4.107,1.764-4.143,4.018l-0.027,1.719l-3.124,3.422l-5.437-3.891l-1.07-3.82c-0.607-2.17-2.865-3.434-5.031-2.828
				l-6.627,1.855c-0.883,0.246-1.648,0.783-2.186,1.514l-4.512-1.469c-1.027-0.336-2.15-0.248-3.114,0.242
				c-0.966,0.49-1.696,1.344-2.031,2.373l-0.845,2.596c-0.168,0.215-0.316,0.447-0.439,0.693c-0.309,0.617-0.453,1.295-0.432,1.973
				l-4.961,15.23c-0.508-0.227-1.068-0.354-1.66-0.354h-8.701l-0.945-3.572l10.064-2.934c1.039-0.303,1.915-1.008,2.436-1.957
				c0.521-0.949,0.643-2.066,0.34-3.105l-2.008-6.879c-0.631-2.164-2.897-3.402-5.062-2.775l-16.836,4.912
				c0.848-1.203,0.996-2.777,0.35-4.119c-0.696-1.441-2.159-2.322-3.771-2.307l-7.907,0.18c-1.181,0.025-2.294,0.564-3.048,1.475
				l-0.82,0.988c-0.654-1.385-2.062-2.342-3.694-2.342c0,0-0.001,0-0.005,0l-6.922,0.008c-0.785,0-1.547,0.229-2.197,0.646
				c-2.982-2.146-6.573-3.326-10.338-3.326c-0.842,0-1.688,0.061-2.525,0.182c-5.507,0.789-10.129,4.043-12.793,8.568
				c-3.055-2.371-6.863-3.734-10.883-3.734c-3.434,0-6.642,0.984-9.361,2.678c-0.445-1.137-1.029-2.229-1.771-3.238
				c-2.232-3.031-5.508-5.012-9.223-5.578l-3.791-0.576c-0.102-0.023-0.203-0.043-0.305-0.061l-4.883-0.742
				c-0.086-0.018-0.172-0.033-0.258-0.047l-5.526-0.848c-2.063-0.314-4.04,0.979-4.569,3.002l-0.35,1.344
				c-0.406,1.549,0.131,3.191,1.373,4.201l2.277,1.85l-3.476,22.758l-2.86,1.689c-1.375,0.812-2.15,2.355-1.98,3.945l0.146,1.381
				c0.221,2.078,1.972,3.652,4.06,3.652h0.012l5.594-0.018c0.137,0,0.271-0.008,0.406-0.023l4.293-0.021
				c2.01-0.012,3.713-1.484,4.014-3.471l0.765-5.049l3.552,6.459c0.717,1.307,2.088,2.117,3.576,2.117h0.016l6.568-0.025
				c0.135,0,0.27-0.008,0.401-0.021h2.329c1.014,0,1.947-0.377,2.666-0.998c1.961,0.75,4.086,1.164,6.307,1.164
				c6.541,0,12.239-3.484,15.32-8.736c3.051,2.363,6.85,3.721,10.867,3.721c0.84,0,1.689-0.061,2.525-0.18
				c0.787-0.113,1.557-0.275,2.307-0.486c0,0.135,0.007,0.27,0.021,0.404l0.149,1.5c0.207,2.08,1.953,3.67,4.047,3.676l6.051,0.023
				c0.006,0,0.01,0,0.016,0h0.013c0.116,0,0.232-0.004,0.347-0.014l4.042-0.006c1.083,0,2.122-0.43,2.886-1.197
				c0.765-0.768,1.193-1.807,1.191-2.889l-0.002-0.914l2.495,3.266c0.771,1.008,1.968,1.604,3.239,1.604l8.58,0.014
				c0,0,0.005,0,0.008,0c0.383,0,0.757-0.053,1.113-0.156c0.4,0.131,0.826,0.205,1.269,0.205h18.782c0.436,0,0.855-0.072,1.25-0.197
				c0.379,0.113,0.775,0.182,1.182,0.182h7.094c1.767,0,3.333-1.139,3.881-2.818l0.389-1.193l1.42,0.205l0.338,1.014
				c0.555,1.668,2.115,2.793,3.872,2.793h7.187c0.539,0,1.062-0.113,1.551-0.312c0.477,0.193,0.993,0.312,1.532,0.312h7.147
				c0.004,0,0.008,0,0.014,0c2.252,0,4.08-1.828,4.08-4.084c0-0.496-0.088-0.973-0.25-1.412l-1.35-4.812
				c0.061,0,0.119-0.002,0.176-0.006c0.571-0.025,1.123-0.17,1.625-0.418l-0.102,6.588c-0.016,1.092,0.406,2.146,1.174,2.926
				s1.814,1.219,2.908,1.219h6.711c0.463,0,0.907-0.082,1.324-0.225c0.42,0.145,0.867,0.225,1.322,0.225h6.132
				c2.114,0,3.878-1.615,4.065-3.723l0.357-4.033l15.031-2.842c1.064-0.201,2.004-0.814,2.615-1.711
				C250.644,43.578,250.873,42.479,250.672,41.414z"/>
		</g>
		<g>
			<g>
				<path fill="#13BAB6" d="M62.99,38.631c3.363-1.223,5.957-4.215,6.518-7.9c0.83-5.455-2.932-10.564-8.385-11.395l-4.098-0.623
					l0.002-0.012l-5.146-0.783l0.002-0.008l-5.527-0.85l-0.35,1.346l4.09,3.324l-4.121,26.977l-4.526,2.678l0.147,1.383l5.592-0.018
					l0.006-0.02l4.686-0.025l2.158-14.26l2.09,0.344l7.68,13.973l6.569-0.025l-0.012-0.021l2.755-0.002l0.143-1.383l-4.752-2.158
					L62.99,38.631z M56.098,24.844l4.092,0.623c2.074,0.316,3.504,2.26,3.189,4.33c-0.281,1.842-1.893,3.23-3.75,3.23
					c-0.189,0-0.379-0.012-0.566-0.041l-4.096-0.674L56.098,24.844z"/>
			</g>
			<g>
				<path fill="#13BAB6" d="M137.613,52.652l8.582,0.014l-13.256-17.35l10.381-12.441l-7.908,0.18l-7.645,9.213l-0.011-9.09
					l-6.923,0.01l0.021,15.951l-4.545-1.838l-4.016-1.748l-0.408,0.85l1.967,2.75c-1.131,1.273-2.692,2.174-4.506,2.434
					c-4.081,0.586-7.877-2.26-8.461-6.34c-0.585-4.08,2.26-7.877,6.34-8.463c1.84-0.262,3.611,0.184,5.068,1.113l-0.969,2.736
					l0.627,0.703l2.893-2.396l4.139-3.268c-2.928-3.666-7.665-5.738-12.637-5.027c-6.652,0.953-11.506,6.572-11.729,13.068
					c-2.118-4.816-6.936-8.189-12.525-8.189c-7.541,0-13.68,6.135-13.68,13.678s6.139,13.678,13.68,13.678
					c7.383,0,13.415-5.881,13.666-13.205c2.406,5.486,8.254,8.941,14.469,8.053c4.893-0.701,8.805-3.934,10.627-8.178l0.01,9.6
					l-3.67,2.135l0.148,1.496l6.053,0.023v-0.014l4.396-0.006L127.779,41.5l0.688-0.822L137.613,52.652z M82.094,46.678
					c-4.123,0-7.478-3.354-7.478-7.477s3.354-7.477,7.478-7.477c4.121,0,7.477,3.354,7.477,7.477S86.215,46.678,82.094,46.678z"/>
			</g>
		</g>
		<g>
			
				<rect x="187.827" y="28.884" transform="matrix(0.8133 0.5818 -0.5818 0.8133 55.9681 -110.1905)" fill="#F06829" width="23.751" height="6.48"/>
		</g>
		<g>
			<polygon points="201.904,37.629 207.478,41.666 209.348,39.053 209.84,35.393 205.525,32.307 			"/>
		</g>
		<g>
			<polygon points="198.417,27.223 193.193,23.486 190.627,24.396 188.158,27.85 200.65,36.783 			"/>
		</g>
		<g>
			<polygon fill="#F06829" points="193.971,52.697 184.531,24.354 178.062,26.508 186.784,52.697 			"/>
		</g>
		<g>
			<polygon points="185.966,50.244 191.258,51.174 192.015,46.826 191.135,44.182 191.12,44.174 184.456,45.707 			"/>
		</g>
		<g>
			<rect x="148.577" y="45.613" fill="#F06829" width="18.782" height="7.1"/>
		</g>
		<g>
			<polygon points="149.605,47.318 151.037,52.713 154.174,52.713 158.557,51.646 156.859,45.613 150.283,45.613 			"/>
		</g>
		<g>
			
				<rect x="174.459" y="42.762" transform="matrix(-0.9896 -0.1436 0.1436 -0.9896 356.9093 117.3656)" fill="#F06829" width="16.466" height="6.073"/>
		</g>
		<g>
			
				<rect x="141.595" y="38.559" transform="matrix(-0.2562 -0.9666 0.9666 -0.2562 149.0568 198.7283)" fill="#F06829" width="18.783" height="6.914"/>
		</g>
		<g>
			
				<rect x="232.983" y="31.88" transform="matrix(-0.1149 -0.9934 0.9934 -0.1149 233.6505 278.1915)" fill="#F06829" width="15.554" height="6.247"/>
		</g>
		<g>
			
				<rect x="200.76" y="28.954" transform="matrix(0.6744 -0.7384 0.7384 0.6744 44.9427 166.5601)" fill="#F06829" width="21.105" height="6.743"/>
		</g>
		<g>
			<polygon fill="#F06829" points="204.201,52.697 195.268,20.807 188.641,22.664 197.054,52.697 			"/>
		</g>
		<g>
			<polygon fill="#F06829" points="227.966,52.697 230.428,24.941 224.345,24.402 221.834,52.697 			"/>
		</g>
		<g>
			<polygon points="153.135,36.627 152.572,34.502 148.603,36.365 			"/>
		</g>
		<g>
			<polygon points="183.664,24.643 180.588,34.094 182.439,39.65 186.414,30.014 185.184,26.318 183.7,24.631 			"/>
		</g>
		<g>
			<polygon points="177.48,48.111 179.498,48.404 181.359,42.537 179.279,42.236 			"/>
		</g>
		<g>
			<polygon fill="#F06829" points="176.885,52.697 185.988,24.748 179.577,22.658 169.791,52.697 			"/>
		</g>
		<g>
			<polygon points="211.594,37.018 220.914,26.807 215.939,22.26 211.594,27.02 			"/>
		</g>
		<g>
			<polygon fill="#F06829" points="219.188,52.697 219.646,22.439 212.938,22.338 212.477,52.697 			"/>
		</g>
		<g>
			<polygon points="222.271,47.77 228.527,46.357 228.719,44.189 222.545,44.701 			"/>
		</g>
		<g>
			
				<rect x="221.159" y="39.037" transform="matrix(0.9826 -0.1857 0.1857 0.9826 -3.696 44.1416)" fill="#F06829" width="25.208" height="5.524"/>
		</g>
		<g>
			<polygon points="226.477,30.994 229.779,32.232 230.428,24.941 226.602,24.602 			"/>
		</g>
		<g>
			<polygon points="244.107,37.029 237.986,38.15 237.855,36.918 			"/>
		</g>
		<g>
			<polygon points="243.408,30.721 242.971,26.92 239.52,27.318 237.326,32.316 237.457,33.527 243.268,33.629 			"/>
		</g>
		<g>
			
				<rect x="226.852" y="26.176" transform="matrix(0.9879 0.1549 -0.1549 0.9879 7.3748 -36.108)" fill="#F06829" width="16.994" height="6.172"/>
		</g>
		<g>
			
				<rect x="147.224" y="26.713" transform="matrix(-0.96 0.28 -0.28 -0.96 315.447 15.5202)" fill="#F06829" width="18.782" height="7.165"/>
		</g>
		<g>
			<path fill="#190100" d="M164.436,26.115c0,0.432-0.35,0.783-0.781,0.783c-0.436,0-0.785-0.352-0.785-0.783
				c0-0.434,0.35-0.785,0.785-0.785C164.086,25.33,164.436,25.682,164.436,26.115z"/>
		</g>
		<g>
			<rect x="163.648" y="25.588" fill="#F06829" width="0.193" height="1.1"/>
		</g>
		<g>
			<rect x="163.466" y="25.588" fill="#F06829" width="0.192" height="1.1"/>
		</g>
		<g>
			<circle fill="#190100" cx="165.054" cy="30.136" r="0.783"/>
		</g>
		<g>
			
				<rect x="165.039" y="29.537" transform="matrix(0.702 -0.7122 0.7122 0.702 27.7827 126.5708)" fill="#F06829" width="0.192" height="1.099"/>
		</g>
		<g>
			
				<rect x="164.911" y="29.669" transform="matrix(0.7122 -0.702 0.702 0.7122 26.2794 124.5327)" fill="#F06829" width="0.192" height="1.099"/>
		</g>
		<g>
			<circle fill="#190100" cx="149.562" cy="34.604" r="0.782"/>
		</g>
		<g>
			
				<rect x="149.544" y="34.005" transform="matrix(0.7071 -0.7071 0.7071 0.7071 19.3957 115.9328)" fill="#F06829" width="0.193" height="1.097"/>
		</g>
		<g>
			
				<rect x="149.416" y="34.135" transform="matrix(0.7071 -0.7071 0.7071 0.7071 19.2656 115.8803)" fill="#F06829" width="0.193" height="1.099"/>
		</g>
		<g>
			<circle fill="#190100" cx="155.181" cy="49.255" r="0.783"/>
		</g>
		<g>
			
				<rect x="155.165" y="48.657" transform="matrix(0.7071 -0.7071 0.7071 0.7071 10.6812 124.1987)" fill="#F06829" width="0.193" height="1.098"/>
		</g>
		<g>
			
				<rect x="155.037" y="48.787" transform="matrix(0.702 -0.7122 0.7122 0.702 11.0928 125.1841)" fill="#F06829" width="0.192" height="1.099"/>
		</g>
		<g>
			<circle fill="#190100" cx="150.978" cy="50.408" r="0.783"/>
		</g>
		<g>
			
				<rect x="150.969" y="49.897" transform="matrix(0.9867 0.1627 -0.1627 0.9867 10.2242 -23.9131)" fill="#F06829" width="0.192" height="1.099"/>
		</g>
		<g>
			
				<rect x="150.789" y="49.868" transform="matrix(0.9867 0.1627 -0.1627 0.9867 10.217 -23.8842)" fill="#F06829" width="0.192" height="1.098"/>
		</g>
		<g>
			<circle fill="#190100" cx="181.548" cy="27.107" r="0.785"/>
		</g>
		<g>
			
				<rect x="181.538" y="26.595" transform="matrix(0.9853 0.1709 -0.1709 0.9853 7.3121 -30.645)" fill="#F06829" width="0.194" height="1.099"/>
		</g>
		<g>
			
				<rect x="181.356" y="26.565" transform="matrix(0.9872 0.1595 -0.1595 0.9872 6.6503 -28.6029)" fill="#F06829" width="0.196" height="1.099"/>
		</g>
		<g>
			<circle fill="#190100" cx="178.381" cy="43.062" r="0.784"/>
		</g>
		<g>
			
				<rect x="178.371" y="42.547" transform="matrix(0.9869 0.1611 -0.1611 0.9869 9.2765 -28.1937)" fill="#F06829" width="0.194" height="1.1"/>
		</g>
		<g>
			
				<rect x="178.19" y="42.518" transform="matrix(0.9867 0.1627 -0.1627 0.9867 9.3864 -28.4417)" fill="#F06829" width="0.192" height="1.1"/>
		</g>
		<g>
			<path fill="#190100" d="M178.019,46.842c-0.07,0.426-0.474,0.717-0.901,0.646s-0.717-0.473-0.646-0.898
				c0.07-0.43,0.473-0.719,0.9-0.648S178.088,46.414,178.019,46.842z"/>
		</g>
		<g>
			
				<rect x="177.234" y="46.202" transform="matrix(0.9867 0.1627 -0.1627 0.9867 9.9731 -28.237)" fill="#F06829" width="0.192" height="1.1"/>
		</g>
		<g>
			
				<rect x="177.052" y="46.172" transform="matrix(0.9869 0.1611 -0.1611 0.9869 9.8433 -27.9339)" fill="#F06829" width="0.194" height="1.1"/>
		</g>
		<g>
			<circle fill="#190100" cx="188.895" cy="45.254" r="0.784"/>
		</g>
		<g>
			
				<rect x="188.884" y="44.741" transform="matrix(0.9869 0.1611 -0.1611 0.9869 9.7673 -29.8591)" fill="#F06829" width="0.194" height="1.1"/>
		</g>
		<g>
			
				<rect x="188.705" y="44.71" transform="matrix(0.9869 0.1611 -0.1611 0.9869 9.7599 -29.8306)" fill="#F06829" width="0.194" height="1.1"/>
		</g>
		<g>
			<circle fill="#190100" cx="193.523" cy="27.472" r="0.784"/>
		</g>
		<g>
			
				<rect x="193.514" y="26.959" transform="matrix(0.9881 0.1536 -0.1536 0.9881 6.5227 -29.4112)" fill="#F06829" width="0.191" height="1.1"/>
		</g>
		<g>
			
				<rect x="193.332" y="26.931" transform="matrix(0.9851 0.1718 -0.1718 0.9851 7.5951 -32.8163)" fill="#F06829" width="0.193" height="1.098"/>
		</g>
		<g>
			<circle fill="#190100" cx="216.623" cy="26.295" r="0.783"/>
		</g>
		<g>
			
				<rect x="216.613" y="25.784" transform="matrix(0.9867 0.1627 -0.1627 0.9867 7.175 -34.9181)" fill="#F06829" width="0.192" height="1.098"/>
		</g>
		<g>
			
				<rect x="216.431" y="25.753" transform="matrix(0.9867 0.1627 -0.1627 0.9867 7.1676 -34.889)" fill="#F06829" width="0.192" height="1.1"/>
		</g>
		<g>
			<path fill="#190100" d="M207.246,35.109c-0.068,0.426-0.473,0.717-0.898,0.646c-0.43-0.07-0.717-0.475-0.646-0.9
				c0.068-0.428,0.471-0.717,0.898-0.646S207.316,34.684,207.246,35.109z"/>
		</g>
		<g>
			
				<rect x="206.464" y="34.471" transform="matrix(0.9868 0.1619 -0.1619 0.9868 8.3974 -32.9874)" fill="#F06829" width="0.193" height="1.098"/>
		</g>
		<g>
			
				<rect x="206.282" y="34.44" transform="matrix(0.9869 0.1611 -0.1611 0.9869 8.3348 -32.7971)" fill="#F06829" width="0.194" height="1.1"/>
		</g>
		<g>
			<path fill="#190100" d="M204.932,37.869c-0.068,0.428-0.472,0.719-0.898,0.646c-0.43-0.068-0.717-0.473-0.646-0.898
				c0.07-0.428,0.471-0.719,0.898-0.648S205.004,37.441,204.932,37.869z"/>
		</g>
		<g>
			
				<rect x="204.149" y="37.232" transform="matrix(0.9851 0.1718 -0.1718 0.9851 9.5252 -34.5213)" fill="#F06829" width="0.193" height="1.099"/>
		</g>
		<g>
			
				<rect x="203.969" y="37.203" transform="matrix(0.985 0.1726 -0.1726 0.985 9.5806 -34.6604)" fill="#F06829" width="0.192" height="1.098"/>
		</g>
		<g>
			<circle fill="#190100" cx="228.679" cy="28.853" r="0.783"/>
		</g>
		<g>
			
				<rect x="228.67" y="28.339" transform="matrix(0.9883 0.1528 -0.1528 0.9883 7.1022 -34.6213)" fill="#F06829" width="0.192" height="1.101"/>
		</g>
		<g>
			
				<rect x="228.489" y="28.311" transform="matrix(0.9867 0.1627 -0.1627 0.9867 7.7446 -36.8173)" fill="#F06829" width="0.192" height="1.098"/>
		</g>
		<g>
			<circle fill="#190100" cx="227.624" cy="41.721" r="0.783"/>
		</g>
		<g>
			
				<rect x="227.614" y="41.207" transform="matrix(0.9869 0.1611 -0.1611 0.9869 9.704 -36.1458)" fill="#F06829" width="0.194" height="1.101"/>
		</g>
		<g>
			
				<rect x="227.433" y="41.181" transform="matrix(0.9851 0.1718 -0.1718 0.9851 10.5496 -38.462)" fill="#F06829" width="0.193" height="1.098"/>
		</g>
		<g>
			<path fill="#190100" d="M224.621,44.934c-0.068,0.428-0.473,0.717-0.898,0.646c-0.43-0.068-0.717-0.473-0.646-0.9
				c0.068-0.426,0.471-0.717,0.898-0.646S224.691,44.506,224.621,44.934z"/>
		</g>
		<g>
			
				<rect x="223.838" y="44.293" transform="matrix(0.9869 0.1611 -0.1611 0.9869 10.1519 -35.4971)" fill="#F06829" width="0.194" height="1.101"/>
		</g>
		<g>
			
				<rect x="223.656" y="44.266" transform="matrix(0.9872 0.1595 -0.1595 0.9872 10.0163 -35.125)" fill="#F06829" width="0.196" height="1.098"/>
		</g>
		<g>
			<circle fill="#190100" cx="242.238" cy="40.22" r="0.784"/>
		</g>
		<g>
			
				<rect x="242.23" y="39.705" transform="matrix(0.988 0.1544 -0.1544 0.988 9.1196 -36.9267)" fill="#F06829" width="0.19" height="1.102"/>
		</g>
		<g>
			
				<rect x="242.048" y="39.676" transform="matrix(0.9869 0.1611 -0.1611 0.9869 9.6459 -38.4916)" fill="#F06829" width="0.194" height="1.1"/>
		</g>
		<g>
			<path fill="#190100" d="M242.2,30.846c-0.069,0.428-0.473,0.719-0.899,0.648c-0.43-0.07-0.719-0.473-0.648-0.9
				c0.072-0.426,0.473-0.719,0.9-0.646C241.98,30.016,242.271,30.418,242.2,30.846z"/>
		</g>
		<g>
			
				<rect x="241.418" y="30.208" transform="matrix(0.9867 0.1627 -0.1627 0.9867 8.2258 -38.8961)" fill="#F06829" width="0.192" height="1.1"/>
		</g>
		<g>
			
				<rect x="241.236" y="30.178" transform="matrix(0.9869 0.1611 -0.1611 0.9869 8.1047 -38.4849)" fill="#F06829" width="0.194" height="1.098"/>
		</g>
	</g>
</g>
<g>
	<path d="M243.91,53.822c0,1.67-1.311,2.98-3.017,2.98c-1.687,0-3.033-1.311-3.033-2.98c0-1.633,1.347-2.943,3.033-2.943
		C242.6,50.879,243.91,52.189,243.91,53.822z M238.449,53.822c0,1.406,1.041,2.521,2.465,2.521c1.385,0,2.406-1.115,2.406-2.504
		c0-1.404-1.021-2.539-2.426-2.539S238.449,52.436,238.449,53.822z M240.428,55.365h-0.684V52.42
		c0.27-0.051,0.646-0.088,1.133-0.088c0.555,0,0.807,0.088,1.023,0.215c0.16,0.127,0.285,0.361,0.285,0.646
		c0,0.322-0.25,0.574-0.609,0.684v0.035c0.287,0.107,0.449,0.322,0.539,0.721c0.09,0.447,0.143,0.627,0.215,0.732h-0.736
		c-0.088-0.105-0.145-0.375-0.232-0.717c-0.055-0.324-0.234-0.467-0.611-0.467h-0.322V55.365z M240.445,53.697h0.322
		c0.377,0,0.682-0.127,0.682-0.432c0-0.27-0.195-0.447-0.627-0.447c-0.179,0-0.305,0.016-0.377,0.035V53.697z"/>
</g>
</svg>
